Interstate-Light.ufo
<glyph name="exclam" format="1">
  <advance width="263"/>
  <unicode hex="0021"/>
  <outline>
    <contour>
      <point x="170" y="371" type="line"/>
      <point x="152" y="188" type="line"/>
      <point x="110" y="188" type="line"/>
      <point x="93" y="371" type="line"/>
      <point x="93" y="700" type="line"/>
      <point x="170" y="700" type="line"/>
    </contour>
    <contour>
      <point x="192" y="50" type="curve" smooth="yes"/>
      <point x="192" y="17"/>
      <point x="163" y="-11"/>
      <point x="131" y="-11" type="curve" smooth="yes"/>
      <point x="98" y="-11"/>
      <point x="70" y="17"/>
      <point x="70" y="50" type="curve" smooth="yes"/>
      <point x="70" y="83"/>
      <point x="98" y="113"/>
      <point x="131" y="113" type="curve" smooth="yes"/>
      <point x="163" y="113"/>
      <point x="192" y="83"/>
    </contour>
  </outline>
</glyph>
<glyph name="quotedbl" format="1">
  <advance width="460"/>
  <unicode hex="0022"/>
  <outline>
    <contour>
      <point x="376" y="700" type="line"/>
      <point x="359" y="373" type="line"/>
      <point x="300" y="373" type="line"/>
      <point x="283" y="700" type="line"/>
    </contour>
    <contour>
      <point x="177" y="700" type="line"/>
      <point x="160" y="373" type="line"/>
      <point x="101" y="373" type="line"/>
      <point x="84" y="700" type="line"/>
    </contour>
  </outline>
</glyph>
<glyph name="numbersign" format="1">
  <advance width="672"/>
  <unicode hex="0023"/>
  <outline>
    <contour>
      <point x="620" y="176" type="line"/>
      <point x="500" y="176" type="line"/>
      <point x="500" y="0" type="line"/>
      <point x="425" y="0" type="line"/>
      <point x="425" y="176" type="line"/>
      <point x="247" y="176" type="line"/>
      <point x="247" y="0" type="line"/>
      <point x="172" y="0" type="line"/>
      <point x="172" y="176" type="line"/>
      <point x="52" y="176" type="line"/>
      <point x="52" y="246" type="line"/>
      <point x="172" y="246" type="line"/>
      <point x="172" y="454" type="line"/>
      <point x="52" y="454" type="line"/>
      <point x="52" y="524" type="line"/>
      <point x="172" y="524" type="line"/>
      <point x="172" y="700" type="line"/>
      <point x="247" y="700" type="line"/>
      <point x="247" y="524" type="line"/>
      <point x="425" y="524" type="line"/>
      <point x="425" y="700" type="line"/>
      <point x="500" y="700" type="line"/>
      <point x="500" y="524" type="line"/>
      <point x="620" y="524" type="line"/>
      <point x="620" y="454" type="line"/>
      <point x="500" y="454" type="line"/>
      <point x="500" y="246" type="line"/>
      <point x="620" y="246" type="line"/>
    </contour>
    <contour>
      <point x="425" y="246" type="line"/>
      <point x="425" y="454" type="line"/>
      <point x="247" y="454" type="line"/>
      <point x="247" y="246" type="line"/>
    </contour>
  </outline>
</glyph>
<glyph name="dollar" format="1">
  <advance width="582"/>
  <unicode hex="0024"/>
  <outline>
    <contour>
      <point x="517" y="189" type="curve" smooth="yes"/>
      <point x="517" y="89"/>
      <point x="446" y="14"/>
      <point x="323" y="1" type="curve"/>
      <point x="323" y="-100" type="line"/>
      <point x="248" y="-100" type="line"/>
      <point x="248" y="1" type="line"/>
      <point x="168" y="10"/>
      <point x="98" y="47"/>
      <point x="50" y="96" type="curve"/>
      <point x="102" y="154" type="line"/>
      <point x="155" y="103"/>
      <point x="216" y="70"/>
      <point x="288" y="70" type="curve" smooth="yes"/>
      <point x="381" y="70"/>
      <point x="439" y="111"/>
      <point x="439" y="185" type="curve" smooth="yes"/>
      <point x="439" y="250"/>
      <point x="400" y="282"/>
      <point x="272" y="328" type="curve" smooth="yes"/>
      <point x="121" y="382"/>
      <point x="70" y="426"/>
      <point x="70" y="527" type="curve" smooth="yes"/>
      <point x="70" y="627"/>
      <point x="140" y="687"/>
      <point x="248" y="699" type="curve"/>
      <point x="248" y="800" type="line"/>
      <point x="323" y="800" type="line"/>
      <point x="323" y="700" type="line"/>
      <point x="398" y="694"/>
      <point x="450" y="667"/>
      <point x="502" y="626" type="curve"/>
      <point x="452" y="565" type="line"/>
      <point x="401" y="607"/>
      <point x="354" y="630"/>
      <point x="284" y="630" type="curve" smooth="yes"/>
      <point x="188" y="630"/>
      <point x="148" y="587"/>
      <point x="148" y="532" type="curve" smooth="yes"/>
      <point x="148" y="474"/>
      <point x="174" y="446"/>
      <point x="314" y="396" type="curve" smooth="yes"/>
      <point x="469" y="340"/>
      <point x="517" y="293"/>
    </contour>
  </outline>
</glyph>
<glyph name="ampersand" format="1">
  <advance width="644"/>
  <unicode hex="0026"/>
  <outline>
    <contour>
      <point x="609" y="0" type="line"/>
      <point x="517" y="0" type="line"/>
      <point x="461" y="73" type="line"/>
      <point x="410" y="21"/>
      <point x="347" y="-11"/>
      <point x="272" y="-11" type="curve" smooth="yes"/>
      <point x="118" y="-11"/>
      <point x="61" y="75"/>
      <point x="61" y="177" type="curve" smooth="yes"/>
      <point x="61" y="281"/>
      <point x="119" y="338"/>
      <point x="218" y="388" type="curve"/>
      <point x="194" y="420" type="line" smooth="yes"/>
      <point x="159" y="466"/>
      <point x="132" y="506"/>
      <point x="132" y="560" type="curve" smooth="yes"/>
      <point x="132" y="648"/>
      <point x="200" y="711"/>
      <point x="310" y="711" type="curve" smooth="yes"/>
      <point x="388" y="711"/>
      <point x="446" y="688"/>
      <point x="496" y="648" type="curve"/>
      <point x="456" y="586" type="line"/>
      <point x="404" y="627"/>
      <point x="364" y="643"/>
      <point x="309" y="643" type="curve" smooth="yes"/>
      <point x="247" y="643"/>
      <point x="209" y="611"/>
      <point x="209" y="564" type="curve" smooth="yes"/>
      <point x="209" y="527"/>
      <point x="224" y="501"/>
      <point x="251" y="466" type="curve" smooth="yes"/>
      <point x="464" y="189" type="line"/>
      <point x="483" y="224"/>
      <point x="498" y="266"/>
      <point x="512" y="312" type="curve"/>
      <point x="578" y="292" type="line"/>
      <point x="562" y="234"/>
      <point x="538" y="179"/>
      <point x="508" y="132" type="curve"/>
    </contour>
    <contour>
      <point x="420" y="125" type="curve"/>
      <point x="258" y="337" type="line"/>
      <point x="171" y="297"/>
      <point x="136" y="247"/>
      <point x="136" y="179" type="curve" smooth="yes"/>
      <point x="136" y="111"/>
      <point x="184" y="57"/>
      <point x="274" y="57" type="curve" smooth="yes"/>
      <point x="334" y="57"/>
      <point x="382" y="82"/>
    </contour>
  </outline>
</glyph>
<glyph name="parenleft" format="1">
  <advance width="348"/>
  <unicode hex="0028"/>
  <outline>
    <contour>
      <point x="299" y="-79" type="curve"/>
      <point x="266" y="-110" type="line"/>
      <point x="165" y="-18"/>
      <point x="63" y="117"/>
      <point x="63" y="300" type="curve" smooth="yes"/>
      <point x="63" y="491"/>
      <point x="165" y="624"/>
      <point x="266" y="716" type="curve"/>
      <point x="299" y="685" type="line"/>
      <point x="204" y="587"/>
      <point x="140" y="468"/>
      <point x="140" y="305" type="curve" smooth="yes"/>
      <point x="140" y="136"/>
      <point x="204" y="19"/>
    </contour>
  </outline>
</glyph>
<glyph name="parenright" format="1">
  <advance width="348"/>
  <unicode hex="0029"/>
  <outline>
    <contour>
      <point x="285" y="306" type="curve" smooth="yes"/>
      <point x="285" y="115"/>
      <point x="183" y="-18"/>
      <point x="82" y="-110" type="curve"/>
      <point x="49" y="-79" type="line"/>
      <point x="144" y="19"/>
      <point x="208" y="138"/>
      <point x="208" y="301" type="curve" smooth="yes"/>
      <point x="208" y="470"/>
      <point x="144" y="587"/>
      <point x="49" y="685" type="curve"/>
      <point x="82" y="716" type="line"/>
      <point x="183" y="624"/>
      <point x="285" y="489"/>
    </contour>
  </outline>
</glyph>
<glyph name="asterisk" format="1">
  <advance width="500"/>
  <unicode hex="002A"/>
  <outline>
    <contour>
      <point x="428" y="445" type="line"/>
      <point x="397" y="391" type="line"/>
      <point x="264" y="490" type="line"/>
      <point x="281" y="324" type="line"/>
      <point x="219" y="324" type="line"/>
      <point x="236" y="490" type="line"/>
      <point x="103" y="391" type="line"/>
      <point x="72" y="445" type="line"/>
      <point x="220" y="512" type="line"/>
      <point x="72" y="579" type="line"/>
      <point x="103" y="633" type="line"/>
      <point x="236" y="534" type="line"/>
      <point x="219" y="700" type="line"/>
      <point x="281" y="700" type="line"/>
      <point x="264" y="534" type="line"/>
      <point x="397" y="633" type="line"/>
      <point x="428" y="579" type="line"/>
      <point x="280" y="512" type="line"/>
    </contour>
  </outline>
</glyph>
<glyph name="plus" format="1">
  <advance width="577"/>
  <unicode hex="002B"/>
  <outline>
    <contour>
      <point x="522" y="310" type="line"/>
      <point x="325" y="310" type="line"/>
      <point x="325" y="107" type="line"/>
      <point x="252" y="107" type="line"/>
      <point x="252" y="310" type="line"/>
      <point x="55" y="310" type="line"/>
      <point x="55" y="378" type="line"/>
      <point x="252" y="378" type="line"/>
      <point x="252" y="581" type="line"/>
      <point x="325" y="581" type="line"/>
      <point x="325" y="378" type="line"/>
      <point x="522" y="378" type="line"/>
    </contour>
  </outline>
</glyph>
<glyph name="comma" format="1">
  <advance width="240"/>
  <unicode hex="002C"/>
  <outline>
    <contour>
      <point x="177" y="115" type="line"/>
      <point x="112" y="-118" type="line"/>
      <point x="60" y="-118" type="line"/>
      <point x="75" y="115" type="line"/>
    </contour>
  </outline>
</glyph>
<glyph name="hyphen" format="1">
  <advance width="322"/>
  <unicode hex="002D"/>
  <unicode hex="2010"/>
  <unicode hex="2011"/>
  <outline>
    <contour>
      <point x="271" y="329" type="line"/>
      <point x="51" y="329" type="line"/>
      <point x="51" y="402" type="line"/>
      <point x="271" y="402" type="line"/>
    </contour>
  </outline>
</glyph>
<glyph name="period" format="1">
  <advance width="240"/>
  <unicode hex="002E"/>
  <outline>
    <contour>
      <point x="184" y="53" type="curve" smooth="yes"/>
      <point x="184" y="18"/>
      <point x="154" y="-11"/>
      <point x="120" y="-11" type="curve" smooth="yes"/>
      <point x="85" y="-11"/>
      <point x="56" y="18"/>
      <point x="56" y="53" type="curve" smooth="yes"/>
      <point x="56" y="88"/>
      <point x="85" y="119"/>
      <point x="120" y="119" type="curve" smooth="yes"/>
      <point x="154" y="119"/>
      <point x="184" y="88"/>
    </contour>
  </outline>
</glyph>
<glyph name="slash" format="1">
  <advance width="425"/>
  <unicode hex="002F"/>
  <outline>
    <contour>
      <point x="399" y="790" type="line"/>
      <point x="100" y="-90" type="line"/>
      <point x="26" y="-90" type="line"/>
      <point x="325" y="790" type="line"/>
    </contour>
  </outline>
</glyph>
<glyph name="zero" format="1">
  <advance width="642"/>
  <unicode hex="0030"/>
  <outline>
    <contour>
      <point x="583" y="350" type="curve" smooth="yes"/>
      <point x="583" y="118"/>
      <point x="477" y="-11"/>
      <point x="321" y="-11" type="curve" smooth="yes"/>
      <point x="165" y="-11"/>
      <point x="59" y="118"/>
      <point x="59" y="350" type="curve" smooth="yes"/>
      <point x="59" y="582"/>
      <point x="165" y="711"/>
      <point x="321" y="711" type="curve" smooth="yes"/>
      <point x="477" y="711"/>
      <point x="583" y="582"/>
    </contour>
    <contour>
      <point x="506" y="350" type="curve" smooth="yes"/>
      <point x="506" y="531"/>
      <point x="442" y="641"/>
      <point x="321" y="641" type="curve" smooth="yes"/>
      <point x="200" y="641"/>
      <point x="136" y="531"/>
      <point x="136" y="350" type="curve" smooth="yes"/>
      <point x="136" y="169"/>
      <point x="200" y="59"/>
      <point x="321" y="59" type="curve" smooth="yes"/>
      <point x="442" y="59"/>
      <point x="506" y="169"/>
    </contour>
  </outline>
</glyph>
<glyph name="one" format="1">
  <advance width="312"/>
  <unicode hex="0031"/>
  <outline>
    <contour>
      <point x="219" y="0" type="line"/>
      <point x="142" y="0" type="line"/>
      <point x="142" y="560" type="line"/>
      <point x="15" y="560" type="line"/>
      <point x="15" y="609" type="line"/>
      <point x="92" y="614"/>
      <point x="148" y="635"/>
      <point x="160" y="700" type="curve"/>
      <point x="219" y="700" type="line"/>
    </contour>
  </outline>
</glyph>
<glyph name="two" format="1">
  <advance width="569"/>
  <unicode hex="0032"/>
  <outline>
    <contour>
      <point x="499" y="0" type="line"/>
      <point x="39" y="0" type="line"/>
      <point x="48" y="177"/>
      <point x="131" y="251"/>
      <point x="264" y="342" type="curve" smooth="yes"/>
      <point x="388" y="426"/>
      <point x="415" y="460"/>
      <point x="415" y="524" type="curve" smooth="yes"/>
      <point x="415" y="596"/>
      <point x="364" y="641"/>
      <point x="272" y="641" type="curve" smooth="yes"/>
      <point x="192" y="641"/>
      <point x="146" y="614"/>
      <point x="102" y="576" type="curve"/>
      <point x="57" y="633" type="line"/>
      <point x="114" y="679"/>
      <point x="174" y="711"/>
      <point x="275" y="711" type="curve" smooth="yes"/>
      <point x="399" y="711"/>
      <point x="492" y="653"/>
      <point x="492" y="528" type="curve" smooth="yes"/>
      <point x="492" y="424"/>
      <point x="444" y="382"/>
      <point x="317" y="295" type="curve" smooth="yes"/>
      <point x="175" y="198"/>
      <point x="141" y="149"/>
      <point x="128" y="74" type="curve"/>
      <point x="499" y="74" type="line"/>
    </contour>
  </outline>
</glyph>
<glyph name="three" format="1">
  <advance width="563"/>
  <unicode hex="0033"/>
  <outline>
    <contour>
      <point x="498" y="201" type="curve" smooth="yes"/>
      <point x="498" y="68"/>
      <point x="403" y="-11"/>
      <point x="249" y="-11" type="curve" smooth="yes"/>
      <point x="160" y="-11"/>
      <point x="77" y="35"/>
      <point x="32" y="86" type="curve"/>
      <point x="84" y="138" type="line"/>
      <point x="128" y="91"/>
      <point x="185" y="59"/>
      <point x="253" y="59" type="curve" smooth="yes"/>
      <point x="367" y="59"/>
      <point x="421" y="109"/>
      <point x="421" y="199" type="curve" smooth="yes"/>
      <point x="421" y="286"/>
      <point x="354" y="331"/>
      <point x="255" y="331" type="curve" smooth="yes"/>
      <point x="209" y="331" type="line"/>
      <point x="209" y="398" type="line"/>
      <point x="257" y="398" type="line" smooth="yes"/>
      <point x="348" y="398"/>
      <point x="392" y="448"/>
      <point x="392" y="522" type="curve" smooth="yes"/>
      <point x="392" y="589"/>
      <point x="355" y="641"/>
      <point x="248" y="641" type="curve" smooth="yes"/>
      <point x="189" y="641"/>
      <point x="142" y="614"/>
      <point x="107" y="577" type="curve"/>
      <point x="58" y="627" type="line"/>
      <point x="98" y="669"/>
      <point x="166" y="711"/>
      <point x="250" y="711" type="curve" smooth="yes"/>
      <point x="373" y="711"/>
      <point x="469" y="652"/>
      <point x="469" y="532" type="curve" smooth="yes"/>
      <point x="469" y="447"/>
      <point x="430" y="399"/>
      <point x="370" y="368" type="curve"/>
      <point x="438" y="353"/>
      <point x="498" y="304"/>
    </contour>
  </outline>
</glyph>
<glyph name="four" format="1">
  <advance width="625"/>
  <unicode hex="0034"/>
  <outline>
    <contour>
      <point x="581" y="166" type="line"/>
      <point x="485" y="166" type="line"/>
      <point x="485" y="0" type="line"/>
      <point x="413" y="0" type="line"/>
      <point x="413" y="166" type="line"/>
      <point x="39" y="166" type="line"/>
      <point x="39" y="231" type="line"/>
      <point x="401" y="700" type="line"/>
      <point x="485" y="700" type="line"/>
      <point x="485" y="233" type="line"/>
      <point x="581" y="233" type="line"/>
    </contour>
    <contour>
      <point x="413" y="233" type="line"/>
      <point x="413" y="543" type="line"/>
      <point x="413" y="607" type="line"/>
      <point x="391" y="576"/>
      <point x="349" y="520"/>
      <point x="314" y="475" type="curve" smooth="yes"/>
      <point x="219" y="352" type="line" smooth="yes"/>
      <point x="191" y="316"/>
      <point x="149" y="262"/>
      <point x="124" y="233" type="curve"/>
      <point x="187" y="233" type="line"/>
    </contour>
  </outline>
</glyph>
<glyph name="five" format="1">
  <advance width="605"/>
  <unicode hex="0035"/>
  <outline>
    <contour>
      <point x="542" y="233" type="curve" smooth="yes"/>
      <point x="542" y="64"/>
      <point x="433" y="-11"/>
      <point x="279" y="-11" type="curve" smooth="yes"/>
      <point x="193" y="-11"/>
      <point x="118" y="14"/>
      <point x="58" y="53" type="curve"/>
      <point x="96" y="115" type="line"/>
      <point x="148" y="82"/>
      <point x="215" y="59"/>
      <point x="285" y="59" type="curve" smooth="yes"/>
      <point x="405" y="59"/>
      <point x="465" y="128"/>
      <point x="465" y="228" type="curve" smooth="yes"/>
      <point x="465" y="319"/>
      <point x="408" y="375"/>
      <point x="298" y="375" type="curve" smooth="yes"/>
      <point x="233" y="375"/>
      <point x="191" y="357"/>
      <point x="152" y="330" type="curve"/>
      <point x="75" y="360" type="line"/>
      <point x="99" y="700" type="line"/>
      <point x="500" y="700" type="line"/>
      <point x="500" y="626" type="line"/>
      <point x="166" y="626" type="line"/>
      <point x="149" y="401" type="line"/>
      <point x="184" y="425"/>
      <point x="237" y="445"/>
      <point x="303" y="445" type="curve" smooth="yes"/>
      <point x="463" y="445"/>
      <point x="542" y="359"/>
    </contour>
  </outline>
</glyph>
<glyph name="six" format="1">
  <advance width="614"/>
  <unicode hex="0036"/>
  <outline>
    <contour>
      <point x="570" y="216" type="curve" smooth="yes"/>
      <point x="570" y="66"/>
      <point x="458" y="-11"/>
      <point x="312" y="-11" type="curve" smooth="yes"/>
      <point x="173" y="-11"/>
      <point x="61" y="65"/>
      <point x="61" y="265" type="curve" smooth="yes"/>
      <point x="61" y="447"/>
      <point x="159" y="693"/>
      <point x="466" y="711" type="curve"/>
      <point x="466" y="642" type="line"/>
      <point x="282" y="626"/>
      <point x="172" y="525"/>
      <point x="136" y="348" type="curve"/>
      <point x="181" y="396"/>
      <point x="239" y="430"/>
      <point x="338" y="430" type="curve" smooth="yes"/>
      <point x="466" y="430"/>
      <point x="570" y="361"/>
    </contour>
    <contour>
      <point x="493" y="212" type="curve" smooth="yes"/>
      <point x="493" y="306"/>
      <point x="428" y="360"/>
      <point x="318" y="360" type="curve" smooth="yes"/>
      <point x="207" y="360"/>
      <point x="138" y="301"/>
      <point x="138" y="212" type="curve" smooth="yes"/>
      <point x="138" y="125"/>
      <point x="209" y="59"/>
      <point x="315" y="59" type="curve" smooth="yes"/>
      <point x="431" y="59"/>
      <point x="493" y="122"/>
    </contour>
  </outline>
</glyph>
<glyph name="seven" format="1">
  <advance width="556"/>
  <unicode hex="0037"/>
  <outline>
    <contour>
      <point x="476" y="627" type="line"/>
      <point x="353" y="475"/>
      <point x="248" y="274"/>
      <point x="243" y="0" type="curve"/>
      <point x="164" y="0" type="line"/>
      <point x="171" y="252"/>
      <point x="263" y="457"/>
      <point x="391" y="626" type="curve"/>
      <point x="16" y="626" type="line"/>
      <point x="16" y="700" type="line"/>
      <point x="476" y="700" type="line"/>
    </contour>
  </outline>
</glyph>
<glyph name="eight" format="1">
  <advance width="636"/>
  <unicode hex="0038"/>
  <outline>
    <contour>
      <point x="578" y="196" type="curve" smooth="yes"/>
      <point x="578" y="60"/>
      <point x="476" y="-11"/>
      <point x="317" y="-11" type="curve" smooth="yes"/>
      <point x="158" y="-11"/>
      <point x="58" y="58"/>
      <point x="58" y="194" type="curve" smooth="yes"/>
      <point x="58" y="286"/>
      <point x="109" y="346"/>
      <point x="197" y="375" type="curve"/>
      <point x="133" y="400"/>
      <point x="88" y="446"/>
      <point x="88" y="523" type="curve" smooth="yes"/>
      <point x="88" y="632"/>
      <point x="170" y="711"/>
      <point x="319" y="711" type="curve" smooth="yes"/>
      <point x="468" y="711"/>
      <point x="548" y="634"/>
      <point x="548" y="525" type="curve" smooth="yes"/>
      <point x="548" y="450"/>
      <point x="505" y="405"/>
      <point x="439" y="377" type="curve"/>
      <point x="527" y="348"/>
      <point x="578" y="288"/>
    </contour>
    <contour>
      <point x="471" y="523" type="curve" smooth="yes"/>
      <point x="471" y="582"/>
      <point x="429" y="641"/>
      <point x="317" y="641" type="curve" smooth="yes"/>
      <point x="205" y="641"/>
      <point x="165" y="584"/>
      <point x="165" y="525" type="curve" smooth="yes"/>
      <point x="165" y="457"/>
      <point x="223" y="406"/>
      <point x="319" y="406" type="curve" smooth="yes"/>
      <point x="412" y="406"/>
      <point x="471" y="458"/>
    </contour>
    <contour>
      <point x="501" y="194" type="curve" smooth="yes"/>
      <point x="501" y="276"/>
      <point x="434" y="336"/>
      <point x="317" y="336" type="curve" smooth="yes"/>
      <point x="200" y="336"/>
      <point x="135" y="278"/>
      <point x="135" y="196" type="curve" smooth="yes"/>
      <point x="135" y="114"/>
      <point x="196" y="59"/>
      <point x="319" y="59" type="curve" smooth="yes"/>
      <point x="442" y="59"/>
      <point x="501" y="112"/>
    </contour>
  </outline>
</glyph>
<glyph name="nine" format="1">
  <advance width="614"/>
  <unicode hex="0039"/>
  <outline>
    <contour>
      <point x="553" y="435" type="curve" smooth="yes"/>
      <point x="553" y="253"/>
      <point x="455" y="7"/>
      <point x="148" y="-11" type="curve"/>
      <point x="148" y="58" type="line"/>
      <point x="332" y="74"/>
      <point x="442" y="175"/>
      <point x="478" y="352" type="curve"/>
      <point x="433" y="304"/>
      <point x="375" y="270"/>
      <point x="276" y="270" type="curve" smooth="yes"/>
      <point x="148" y="270"/>
      <point x="44" y="339"/>
      <point x="44" y="484" type="curve" smooth="yes"/>
      <point x="44" y="634"/>
      <point x="156" y="711"/>
      <point x="302" y="711" type="curve" smooth="yes"/>
      <point x="441" y="711"/>
      <point x="553" y="635"/>
    </contour>
    <contour>
      <point x="476" y="488" type="curve" smooth="yes"/>
      <point x="476" y="575"/>
      <point x="405" y="641"/>
      <point x="299" y="641" type="curve" smooth="yes"/>
      <point x="183" y="641"/>
      <point x="121" y="578"/>
      <point x="121" y="488" type="curve" smooth="yes"/>
      <point x="121" y="394"/>
      <point x="186" y="340"/>
      <point x="296" y="340" type="curve" smooth="yes"/>
      <point x="407" y="340"/>
      <point x="476" y="399"/>
    </contour>
  </outline>
</glyph>
<glyph name="colon" format="1">
  <advance width="240"/>
  <unicode hex="003A"/>
  <outline>
    <contour>
      <point x="184" y="470" type="curve" smooth="yes"/>
      <point x="184" y="435"/>
      <point x="154" y="406"/>
      <point x="120" y="406" type="curve" smooth="yes"/>
      <point x="85" y="406"/>
      <point x="56" y="435"/>
      <point x="56" y="470" type="curve" smooth="yes"/>
      <point x="56" y="505"/>
      <point x="85" y="536"/>
      <point x="120" y="536" type="curve" smooth="yes"/>
      <point x="154" y="536"/>
      <point x="184" y="505"/>
    </contour>
    <contour>
      <point x="184" y="53" type="curve" smooth="yes"/>
      <point x="184" y="18"/>
      <point x="154" y="-11"/>
      <point x="120" y="-11" type="curve" smooth="yes"/>
      <point x="85" y="-11"/>
      <point x="56" y="18"/>
      <point x="56" y="53" type="curve" smooth="yes"/>
      <point x="56" y="88"/>
      <point x="85" y="119"/>
      <point x="120" y="119" type="curve" smooth="yes"/>
      <point x="154" y="119"/>
      <point x="184" y="88"/>
    </contour>
  </outline>
</glyph>
<glyph name="semicolon" format="1">
  <advance width="240"/>
  <unicode hex="003B"/>
  <outline>
    <contour>
      <point x="184" y="470" type="curve" smooth="yes"/>
      <point x="184" y="435"/>
      <point x="154" y="406"/>
      <point x="120" y="406" type="curve" smooth="yes"/>
      <point x="85" y="406"/>
      <point x="56" y="435"/>
      <point x="56" y="470" type="curve" smooth="yes"/>
      <point x="56" y="505"/>
      <point x="85" y="536"/>
      <point x="120" y="536" type="curve" smooth="yes"/>
      <point x="154" y="536"/>
      <point x="184" y="505"/>
    </contour>
    <contour>
      <point x="170" y="115" type="line"/>
      <point x="105" y="-118" type="line"/>
      <point x="53" y="-118" type="line"/>
      <point x="68" y="115" type="line"/>
    </contour>
  </outline>
</glyph>
<glyph name="less" format="1">
  <advance width="385"/>
  <unicode hex="003C"/>
  <outline>
    <contour>
      <point x="316" y="62" type="line"/>
      <point x="57" y="310" type="line"/>
      <point x="57" y="378" type="line"/>
      <point x="316" y="626" type="line"/>
      <point x="316" y="533" type="line"/>
      <point x="116" y="345" type="line"/>
      <point x="316" y="157" type="line"/>
    </contour>
  </outline>
</glyph>
<glyph name="equal" format="1">
  <advance width="577"/>
  <unicode hex="003D"/>
  <outline>
    <contour>
      <point x="497" y="418" type="line"/>
      <point x="80" y="418" type="line"/>
      <point x="80" y="488" type="line"/>
      <point x="497" y="488" type="line"/>
    </contour>
    <contour>
      <point x="497" y="200" type="line"/>
      <point x="80" y="200" type="line"/>
      <point x="80" y="270" type="line"/>
      <point x="497" y="270" type="line"/>
    </contour>
  </outline>
</glyph>
<glyph name="greater" format="1">
  <advance width="385"/>
  <unicode hex="003E"/>
  <outline>
    <contour>
      <point x="328" y="310" type="line"/>
      <point x="69" y="62" type="line"/>
      <point x="69" y="155" type="line"/>
      <point x="269" y="343" type="line"/>
      <point x="69" y="531" type="line"/>
      <point x="69" y="626" type="line"/>
      <point x="328" y="378" type="line"/>
    </contour>
  </outline>
</glyph>
<glyph name="question" format="1">
  <advance width="561"/>
  <unicode hex="003F"/>
  <outline>
    <contour>
      <point x="494" y="539" type="curve" smooth="yes"/>
      <point x="494" y="442"/>
      <point x="448" y="406"/>
      <point x="370" y="358" type="curve" smooth="yes"/>
      <point x="303" y="317"/>
      <point x="294" y="293"/>
      <point x="294" y="188" type="curve"/>
      <point x="217" y="188" type="line"/>
      <point x="217" y="322"/>
      <point x="230" y="352"/>
      <point x="335" y="417" type="curve" smooth="yes"/>
      <point x="387" y="449"/>
      <point x="416" y="476"/>
      <point x="416" y="533" type="curve" smooth="yes"/>
      <point x="416" y="597"/>
      <point x="359" y="640"/>
      <point x="275" y="640" type="curve" smooth="yes"/>
      <point x="201" y="640"/>
      <point x="146" y="611"/>
      <point x="94" y="563" type="curve"/>
      <point x="44" y="618" type="line"/>
      <point x="97" y="670"/>
      <point x="177" y="711"/>
      <point x="278" y="711" type="curve" smooth="yes"/>
      <point x="405" y="711"/>
      <point x="494" y="653"/>
    </contour>
    <contour>
      <point x="315" y="50" type="curve" smooth="yes"/>
      <point x="315" y="17"/>
      <point x="286" y="-11"/>
      <point x="254" y="-11" type="curve" smooth="yes"/>
      <point x="221" y="-11"/>
      <point x="193" y="17"/>
      <point x="193" y="50" type="curve" smooth="yes"/>
      <point x="193" y="83"/>
      <point x="221" y="113"/>
      <point x="254" y="113" type="curve" smooth="yes"/>
      <point x="286" y="113"/>
      <point x="315" y="83"/>
    </contour>
  </outline>
</glyph>
<glyph name="at" format="1">
  <advance width="836"/>
  <unicode hex="0040"/>
  <outline>
    <contour>
      <point x="779" y="360" type="curve" smooth="yes"/>
      <point x="779" y="209"/>
      <point x="720" y="152"/>
      <point x="631" y="152" type="curve" smooth="yes"/>
      <point x="581" y="152"/>
      <point x="542" y="180"/>
      <point x="524" y="215" type="curve"/>
      <point x="494" y="177"/>
      <point x="449" y="152"/>
      <point x="394" y="152" type="curve" smooth="yes"/>
      <point x="307" y="152"/>
      <point x="241" y="196"/>
      <point x="241" y="289" type="curve" smooth="yes"/>
      <point x="241" y="374"/>
      <point x="312" y="420"/>
      <point x="403" y="420" type="curve" smooth="yes"/>
      <point x="455" y="420"/>
      <point x="489" y="408"/>
      <point x="514" y="393" type="curve"/>
      <point x="514" y="452" type="line" smooth="yes"/>
      <point x="514" y="495"/>
      <point x="484" y="516"/>
      <point x="411" y="516" type="curve" smooth="yes"/>
      <point x="375" y="516"/>
      <point x="340" y="507"/>
      <point x="309" y="492" type="curve"/>
      <point x="287" y="535" type="line"/>
      <point x="327" y="555"/>
      <point x="369" y="566"/>
      <point x="418" y="566" type="curve" smooth="yes"/>
      <point x="507" y="566"/>
      <point x="566" y="537"/>
      <point x="566" y="455" type="curve" smooth="yes"/>
      <point x="566" y="262" type="line" smooth="yes"/>
      <point x="566" y="226"/>
      <point x="587" y="197"/>
      <point x="637" y="197" type="curve" smooth="yes"/>
      <point x="691" y="197"/>
      <point x="729" y="240"/>
      <point x="729" y="359" type="curve" smooth="yes"/>
      <point x="729" y="541"/>
      <point x="597" y="664"/>
      <point x="418" y="664" type="curve" smooth="yes"/>
      <point x="238" y="664"/>
      <point x="107" y="540"/>
      <point x="107" y="352" type="curve" smooth="yes"/>
      <point x="107" y="162"/>
      <point x="238" y="36"/>
      <point x="418" y="36" type="curve" smooth="yes"/>
      <point x="471" y="36"/>
      <point x="512" y="46"/>
      <point x="554" y="67" type="curve"/>
      <point x="572" y="23" type="line"/>
      <point x="515" y="-3"/>
      <point x="475" y="-11"/>
      <point x="418" y="-11" type="curve" smooth="yes"/>
      <point x="209" y="-11"/>
      <point x="57" y="141"/>
      <point x="57" y="350" type="curve" smooth="yes"/>
      <point x="57" y="559"/>
      <point x="209" y="711"/>
      <point x="418" y="711" type="curve" smooth="yes"/>
      <point x="631" y="711"/>
      <point x="779" y="550"/>
    </contour>
    <contour>
      <point x="514" y="262" type="curve"/>
      <point x="514" y="343" type="line"/>
      <point x="489" y="358"/>
      <point x="450" y="372"/>
      <point x="398" y="372" type="curve" smooth="yes"/>
      <point x="338" y="372"/>
      <point x="297" y="339"/>
      <point x="297" y="292" type="curve" smooth="yes"/>
      <point x="297" y="234"/>
      <point x="328" y="202"/>
      <point x="399" y="202" type="curve" smooth="yes"/>
      <point x="446" y="202"/>
      <point x="491" y="227"/>
    </contour>
  </outline>
</glyph>
<glyph name="A" format="1">
  <advance width="678"/>
  <unicode hex="0041"/>
  <outline>
    <contour>
      <point x="625" y="0" type="line"/>
      <point x="543" y="0" type="line"/>
      <point x="483" y="178" type="line"/>
      <point x="194" y="178" type="line"/>
      <point x="133" y="0" type="line"/>
      <point x="53" y="0" type="line"/>
      <point x="296" y="700" type="line"/>
      <point x="382" y="700" type="line"/>
    </contour>
    <contour>
      <point x="459" y="249" type="line"/>
      <point x="382" y="479" type="line" smooth="yes"/>
      <point x="367" y="525"/>
      <point x="346" y="588"/>
      <point x="339" y="617" type="curve"/>
      <point x="332" y="589"/>
      <point x="312" y="526"/>
      <point x="295" y="477" type="curve" smooth="yes"/>
      <point x="218" y="249" type="line"/>
    </contour>
  </outline>
</glyph>
<glyph name="B" format="1">
  <advance width="626"/>
  <unicode hex="0042"/>
  <outline>
    <contour>
      <point x="571" y="207" type="curve" smooth="yes"/>
      <point x="571" y="69"/>
      <point x="490" y="0"/>
      <point x="343" y="0" type="curve" smooth="yes"/>
      <point x="92" y="0" type="line"/>
      <point x="92" y="700" type="line"/>
      <point x="348" y="700" type="line" smooth="yes"/>
      <point x="459" y="700"/>
      <point x="538" y="645"/>
      <point x="538" y="525" type="curve" smooth="yes"/>
      <point x="538" y="448"/>
      <point x="496" y="403"/>
      <point x="437" y="382" type="curve"/>
      <point x="501" y="365"/>
      <point x="571" y="320"/>
    </contour>
    <contour>
      <point x="460" y="522" type="curve" smooth="yes"/>
      <point x="460" y="586"/>
      <point x="423" y="629"/>
      <point x="345" y="629" type="curve" smooth="yes"/>
      <point x="170" y="629" type="line"/>
      <point x="170" y="411" type="line"/>
      <point x="339" y="411" type="line" smooth="yes"/>
      <point x="426" y="411"/>
      <point x="460" y="461"/>
    </contour>
    <contour>
      <point x="493" y="203" type="curve" smooth="yes"/>
      <point x="493" y="291"/>
      <point x="435" y="341"/>
      <point x="344" y="341" type="curve" smooth="yes"/>
      <point x="170" y="341" type="line"/>
      <point x="170" y="71" type="line"/>
      <point x="348" y="71" type="line" smooth="yes"/>
      <point x="453" y="71"/>
      <point x="493" y="123"/>
    </contour>
  </outline>
</glyph>
<glyph name="C" format="1">
  <advance width="628"/>
  <unicode hex="0043"/>
  <outline>
    <contour>
      <point x="574" y="105" type="line"/>
      <point x="523" y="36"/>
      <point x="447" y="-11"/>
      <point x="345" y="-11" type="curve" smooth="yes"/>
      <point x="174" y="-11"/>
      <point x="62" y="144"/>
      <point x="62" y="349" type="curve" smooth="yes"/>
      <point x="62" y="557"/>
      <point x="179" y="711"/>
      <point x="348" y="711" type="curve" smooth="yes"/>
      <point x="444" y="711"/>
      <point x="516" y="675"/>
      <point x="571" y="599" type="curve"/>
      <point x="509" y="552" type="line"/>
      <point x="464" y="613"/>
      <point x="422" y="640"/>
      <point x="346" y="640" type="curve" smooth="yes"/>
      <point x="226" y="640"/>
      <point x="140" y="521"/>
      <point x="140" y="351" type="curve" smooth="yes"/>
      <point x="140" y="180"/>
      <point x="229" y="60"/>
      <point x="347" y="60" type="curve" smooth="yes"/>
      <point x="423" y="60"/>
      <point x="475" y="94"/>
      <point x="520" y="152" type="curve"/>
    </contour>
  </outline>
</glyph>
<glyph name="D" format="1">
  <advance width="658"/>
  <unicode hex="0044"/>
  <outline>
    <contour>
      <point x="596" y="355" type="curve" smooth="yes"/>
      <point x="596" y="101"/>
      <point x="450" y="0"/>
      <point x="263" y="0" type="curve" smooth="yes"/>
      <point x="92" y="0" type="line"/>
      <point x="92" y="700" type="line"/>
      <point x="277" y="700" type="line" smooth="yes"/>
      <point x="461" y="700"/>
      <point x="596" y="595"/>
    </contour>
    <contour>
      <point x="518" y="352" type="curve" smooth="yes"/>
      <point x="518" y="531"/>
      <point x="432" y="629"/>
      <point x="271" y="629" type="curve" smooth="yes"/>
      <point x="170" y="629" type="line"/>
      <point x="170" y="71" type="line"/>
      <point x="273" y="71" type="line" smooth="yes"/>
      <point x="424" y="71"/>
      <point x="518" y="151"/>
    </contour>
  </outline>
</glyph>
<glyph name="E" format="1">
  <advance width="587"/>
  <unicode hex="0045"/>
  <outline>
    <contour>
      <point x="530" y="0" type="line"/>
      <point x="92" y="0" type="line"/>
      <point x="92" y="700" type="line"/>
      <point x="515" y="700" type="line"/>
      <point x="515" y="629" type="line"/>
      <point x="170" y="629" type="line"/>
      <point x="170" y="409" type="line"/>
      <point x="370" y="409" type="line"/>
      <point x="370" y="338" type="line"/>
      <point x="170" y="338" type="line"/>
      <point x="170" y="71" type="line"/>
      <point x="530" y="71" type="line"/>
    </contour>
  </outline>
</glyph>
<glyph name="F" format="1">
  <advance width="548"/>
  <unicode hex="0046"/>
  <outline>
    <contour>
      <point x="503" y="629" type="line"/>
      <point x="170" y="629" type="line"/>
      <point x="170" y="397" type="line"/>
      <point x="362" y="397" type="line"/>
      <point x="362" y="326" type="line"/>
      <point x="170" y="326" type="line"/>
      <point x="170" y="0" type="line"/>
      <point x="92" y="0" type="line"/>
      <point x="92" y="700" type="line"/>
      <point x="503" y="700" type="line"/>
    </contour>
  </outline>
</glyph>
<glyph name="G" format="1">
  <advance width="659"/>
  <unicode hex="0047"/>
  <outline>
    <contour>
      <point x="604" y="279" type="line" smooth="yes"/>
      <point x="604" y="86"/>
      <point x="493" y="-11"/>
      <point x="345" y="-11" type="curve" smooth="yes"/>
      <point x="174" y="-11"/>
      <point x="62" y="144"/>
      <point x="62" y="349" type="curve" smooth="yes"/>
      <point x="62" y="557"/>
      <point x="179" y="711"/>
      <point x="348" y="711" type="curve" smooth="yes"/>
      <point x="444" y="711"/>
      <point x="516" y="675"/>
      <point x="571" y="599" type="curve"/>
      <point x="509" y="552" type="line"/>
      <point x="464" y="613"/>
      <point x="422" y="640"/>
      <point x="346" y="640" type="curve" smooth="yes"/>
      <point x="226" y="640"/>
      <point x="140" y="521"/>
      <point x="140" y="351" type="curve" smooth="yes"/>
      <point x="140" y="180"/>
      <point x="230" y="60"/>
      <point x="347" y="60" type="curve" smooth="yes"/>
      <point x="464" y="60"/>
      <point x="528" y="132"/>
      <point x="528" y="269" type="curve" smooth="yes"/>
      <point x="528" y="275" type="line"/>
      <point x="402" y="275" type="line"/>
      <point x="402" y="347" type="line"/>
      <point x="604" y="347" type="line"/>
    </contour>
  </outline>
</glyph>
<glyph name="H" format="1">
  <advance width="688"/>
  <unicode hex="0048"/>
  <outline>
    <contour>
      <point x="596" y="0" type="line"/>
      <point x="518" y="0" type="line"/>
      <point x="518" y="330" type="line"/>
      <point x="170" y="330" type="line"/>
      <point x="170" y="0" type="line"/>
      <point x="92" y="0" type="line"/>
      <point x="92" y="700" type="line"/>
      <point x="170" y="700" type="line"/>
      <point x="170" y="401" type="line"/>
      <point x="518" y="401" type="line"/>
      <point x="518" y="700" type="line"/>
      <point x="596" y="700" type="line"/>
    </contour>
  </outline>
</glyph>
<glyph name="J" format="1">
  <advance width="578"/>
  <unicode hex="004A"/>
  <outline>
    <contour>
      <point x="491" y="268" type="line" smooth="yes"/>
      <point x="491" y="81"/>
      <point x="413" y="-11"/>
      <point x="252" y="-11" type="curve" smooth="yes"/>
      <point x="134" y="-11"/>
      <point x="67" y="49"/>
      <point x="30" y="158" type="curve"/>
      <point x="104" y="183" type="line"/>
      <point x="132" y="107"/>
      <point x="172" y="60"/>
      <point x="255" y="60" type="curve" smooth="yes"/>
      <point x="367" y="60"/>
      <point x="413" y="124"/>
      <point x="413" y="271" type="curve" smooth="yes"/>
      <point x="413" y="700" type="line"/>
      <point x="491" y="700" type="line"/>
    </contour>
  </outline>
</glyph>
<glyph name="K" format="1">
  <advance width="642"/>
  <unicode hex="004B"/>
  <outline>
    <contour>
      <point x="599" y="0" type="line"/>
      <point x="510" y="0" type="line"/>
      <point x="303" y="373" type="line"/>
      <point x="170" y="201" type="line"/>
      <point x="170" y="0" type="line"/>
      <point x="92" y="0" type="line"/>
      <point x="92" y="700" type="line"/>
      <point x="170" y="700" type="line"/>
      <point x="170" y="395" type="line"/>
      <point x="170" y="301" type="line"/>
      <point x="188" y="327"/>
      <point x="244" y="402"/>
      <point x="272" y="438" type="curve" smooth="yes"/>
      <point x="475" y="700" type="line"/>
      <point x="560" y="700" type="line"/>
      <point x="355" y="437" type="line"/>
    </contour>
  </outline>
</glyph>
<glyph name="L" format="1">
  <advance width="575"/>
  <unicode hex="004C"/>
  <outline>
    <contour>
      <point x="516" y="0" type="line"/>
      <point x="92" y="0" type="line"/>
      <point x="92" y="700" type="line"/>
      <point x="170" y="700" type="line"/>
      <point x="170" y="71" type="line"/>
      <point x="516" y="71" type="line"/>
    </contour>
  </outline>
</glyph>
<glyph name="M" format="1">
  <advance width="788"/>
  <unicode hex="004D"/>
  <outline>
    <contour>
      <point x="696" y="0" type="line"/>
      <point x="621" y="0" type="line"/>
      <point x="621" y="474" type="line"/>
      <point x="621" y="549" type="line"/>
      <point x="614" y="522"/>
      <point x="594" y="470"/>
      <point x="579" y="433" type="curve" smooth="yes"/>
      <point x="392" y="-18" type="line"/>
      <point x="208" y="433" type="line" smooth="yes"/>
      <point x="193" y="469"/>
      <point x="174" y="522"/>
      <point x="167" y="549" type="curve"/>
      <point x="167" y="474" type="line"/>
      <point x="167" y="0" type="line"/>
      <point x="92" y="0" type="line"/>
      <point x="92" y="700" type="line"/>
      <point x="179" y="700" type="line"/>
      <point x="344" y="281" type="line" smooth="yes"/>
      <point x="361" y="239"/>
      <point x="386" y="174"/>
      <point x="394" y="145" type="curve"/>
      <point x="403" y="175"/>
      <point x="428" y="240"/>
      <point x="444" y="281" type="curve" smooth="yes"/>
      <point x="611" y="700" type="line"/>
      <point x="696" y="700" type="line"/>
    </contour>
  </outline>
</glyph>
<glyph name="N" format="1">
  <advance width="688"/>
  <unicode hex="004E"/>
  <outline>
    <contour>
      <point x="596" y="0" type="line"/>
      <point x="523" y="0" type="line"/>
      <point x="217" y="479" type="line" smooth="yes"/>
      <point x="202" y="503"/>
      <point x="176" y="549"/>
      <point x="167" y="567" type="curve"/>
      <point x="167" y="519" type="line"/>
      <point x="167" y="0" type="line"/>
      <point x="92" y="0" type="line"/>
      <point x="92" y="700" type="line"/>
      <point x="168" y="700" type="line"/>
      <point x="471" y="212" type="line" smooth="yes"/>
      <point x="486" y="188"/>
      <point x="512" y="142"/>
      <point x="521" y="124" type="curve"/>
      <point x="521" y="172" type="line"/>
      <point x="521" y="700" type="line"/>
      <point x="596" y="700" type="line"/>
    </contour>
  </outline>
</glyph>
<glyph name="O" format="1">
  <advance width="705"/>
  <unicode hex="004F"/>
  <outline>
    <contour>
      <point x="643" y="351" type="curve" smooth="yes"/>
      <point x="643" y="140"/>
      <point x="525" y="-11"/>
      <point x="351" y="-11" type="curve" smooth="yes"/>
      <point x="177" y="-11"/>
      <point x="62" y="138"/>
      <point x="62" y="349" type="curve" smooth="yes"/>
      <point x="62" y="560"/>
      <point x="179" y="711"/>
      <point x="353" y="711" type="curve" smooth="yes"/>
      <point x="527" y="711"/>
      <point x="643" y="562"/>
    </contour>
    <contour>
      <point x="565" y="349" type="curve" smooth="yes"/>
      <point x="565" y="525"/>
      <point x="472" y="640"/>
      <point x="350" y="640" type="curve" smooth="yes"/>
      <point x="229" y="640"/>
      <point x="140" y="527"/>
      <point x="140" y="351" type="curve" smooth="yes"/>
      <point x="140" y="175"/>
      <point x="232" y="60"/>
      <point x="354" y="60" type="curve" smooth="yes"/>
      <point x="475" y="60"/>
      <point x="565" y="173"/>
    </contour>
  </outline>
</glyph>
<glyph name="P" format="1">
  <advance width="618"/>
  <unicode hex="0050"/>
  <outline>
    <contour>
      <point x="577" y="491" type="curve" smooth="yes"/>
      <point x="577" y="352"/>
      <point x="480" y="275"/>
      <point x="340" y="275" type="curve" smooth="yes"/>
      <point x="170" y="275" type="line"/>
      <point x="170" y="0" type="line"/>
      <point x="92" y="0" type="line"/>
      <point x="92" y="700" type="line"/>
      <point x="354" y="700" type="line" smooth="yes"/>
      <point x="481" y="700"/>
      <point x="577" y="633"/>
    </contour>
    <contour>
      <point x="499" y="488" type="curve" smooth="yes"/>
      <point x="499" y="578"/>
      <point x="447" y="629"/>
      <point x="351" y="629" type="curve" smooth="yes"/>
      <point x="170" y="629" type="line"/>
      <point x="170" y="346" type="line"/>
      <point x="341" y="346" type="line" smooth="yes"/>
      <point x="448" y="346"/>
      <point x="499" y="395"/>
    </contour>
  </outline>
</glyph>
<glyph name="Q" format="1">
  <advance width="705"/>
  <unicode hex="0051"/>
  <outline>
    <contour>
      <point x="643" y="351" type="curve" smooth="yes"/>
      <point x="643" y="221"/>
      <point x="596" y="113"/>
      <point x="520" y="50" type="curve"/>
      <point x="565" y="-23" type="line"/>
      <point x="501" y="-61" type="line"/>
      <point x="457" y="11" type="line"/>
      <point x="425" y="-3"/>
      <point x="389" y="-11"/>
      <point x="351" y="-11" type="curve" smooth="yes"/>
      <point x="177" y="-11"/>
      <point x="62" y="138"/>
      <point x="62" y="349" type="curve" smooth="yes"/>
      <point x="62" y="560"/>
      <point x="179" y="711"/>
      <point x="353" y="711" type="curve" smooth="yes"/>
      <point x="527" y="711"/>
      <point x="643" y="562"/>
    </contour>
    <contour>
      <point x="565" y="349" type="curve" smooth="yes"/>
      <point x="565" y="525"/>
      <point x="472" y="640"/>
      <point x="350" y="640" type="curve" smooth="yes"/>
      <point x="229" y="640"/>
      <point x="140" y="527"/>
      <point x="140" y="351" type="curve" smooth="yes"/>
      <point x="140" y="175"/>
      <point x="232" y="60"/>
      <point x="354" y="60" type="curve" smooth="yes"/>
      <point x="377" y="60"/>
      <point x="400" y="64"/>
      <point x="420" y="72" type="curve"/>
      <point x="363" y="165" type="line"/>
      <point x="427" y="203" type="line"/>
      <point x="483" y="111" type="line"/>
      <point x="533" y="159"/>
      <point x="565" y="240"/>
    </contour>
  </outline>
</glyph>
<glyph name="R" format="1">
  <advance width="650"/>
  <unicode hex="0052"/>
  <outline>
    <contour>
      <point x="587" y="502" type="curve" smooth="yes"/>
      <point x="587" y="393"/>
      <point x="522" y="325"/>
      <point x="422" y="304" type="curve"/>
      <point x="576" y="0" type="line"/>
      <point x="486" y="0" type="line"/>
      <point x="336" y="298" type="line"/>
      <point x="170" y="298" type="line"/>
      <point x="170" y="0" type="line"/>
      <point x="92" y="0" type="line"/>
      <point x="92" y="700" type="line"/>
      <point x="369" y="700" type="line" smooth="yes"/>
      <point x="492" y="700"/>
      <point x="587" y="637"/>
    </contour>
    <contour>
      <point x="509" y="499" type="curve" smooth="yes"/>
      <point x="509" y="585"/>
      <point x="459" y="629"/>
      <point x="366" y="629" type="curve" smooth="yes"/>
      <point x="170" y="629" type="line"/>
      <point x="170" y="368" type="line"/>
      <point x="356" y="368" type="line" smooth="yes"/>
      <point x="460" y="368"/>
      <point x="509" y="411"/>
    </contour>
  </outline>
</glyph>
<glyph name="S" format="1">
  <advance width="592"/>
  <unicode hex="0053"/>
  <outline>
    <contour>
      <point x="522" y="184" type="curve" smooth="yes"/>
      <point x="522" y="74"/>
      <point x="436" y="-11"/>
      <point x="290" y="-11" type="curve" smooth="yes"/>
      <point x="195" y="-11"/>
      <point x="110" y="30"/>
      <point x="55" y="86" type="curve"/>
      <point x="107" y="144" type="line"/>
      <point x="160" y="93"/>
      <point x="221" y="60"/>
      <point x="293" y="60" type="curve" smooth="yes"/>
      <point x="386" y="60"/>
      <point x="444" y="106"/>
      <point x="444" y="180" type="curve" smooth="yes"/>
      <point x="444" y="245"/>
      <point x="405" y="282"/>
      <point x="277" y="328" type="curve" smooth="yes"/>
      <point x="126" y="382"/>
      <point x="75" y="431"/>
      <point x="75" y="532" type="curve" smooth="yes"/>
      <point x="75" y="644"/>
      <point x="163" y="711"/>
      <point x="294" y="711" type="curve" smooth="yes"/>
      <point x="388" y="711"/>
      <point x="448" y="683"/>
      <point x="507" y="636" type="curve"/>
      <point x="457" y="575" type="line"/>
      <point x="406" y="617"/>
      <point x="359" y="640"/>
      <point x="289" y="640" type="curve" smooth="yes"/>
      <point x="193" y="640"/>
      <point x="153" y="592"/>
      <point x="153" y="537" type="curve" smooth="yes"/>
      <point x="153" y="479"/>
      <point x="179" y="446"/>
      <point x="319" y="396" type="curve" smooth="yes"/>
      <point x="474" y="340"/>
      <point x="522" y="288"/>
    </contour>
  </outline>
</glyph>
<glyph name="T" format="1">
  <advance width="588"/>
  <unicode hex="0054"/>
  <outline>
    <contour>
      <point x="539" y="629" type="line"/>
      <point x="333" y="629" type="line"/>
      <point x="333" y="0" type="line"/>
      <point x="255" y="0" type="line"/>
      <point x="255" y="629" type="line"/>
      <point x="49" y="629" type="line"/>
      <point x="49" y="700" type="line"/>
      <point x="539" y="700" type="line"/>
    </contour>
  </outline>
</glyph>
<glyph name="U" format="1">
  <advance width="678"/>
  <unicode hex="0055"/>
  <outline>
    <contour>
      <point x="591" y="286" type="line" smooth="yes"/>
      <point x="591" y="92"/>
      <point x="508" y="-11"/>
      <point x="340" y="-11" type="curve" smooth="yes"/>
      <point x="173" y="-11"/>
      <point x="87" y="90"/>
      <point x="87" y="284" type="curve" smooth="yes"/>
      <point x="87" y="700" type="line"/>
      <point x="165" y="700" type="line"/>
      <point x="165" y="286" type="line" smooth="yes"/>
      <point x="165" y="135"/>
      <point x="223" y="60"/>
      <point x="344" y="60" type="curve" smooth="yes"/>
      <point x="465" y="60"/>
      <point x="513" y="133"/>
      <point x="513" y="284" type="curve" smooth="yes"/>
      <point x="513" y="700" type="line"/>
      <point x="591" y="700" type="line"/>
    </contour>
  </outline>
</glyph>
<glyph name="V" format="1">
  <advance width="668"/>
  <unicode hex="0056"/>
  <outline>
    <contour>
      <point x="615" y="700" type="line"/>
      <point x="377" y="0" type="line"/>
      <point x="291" y="0" type="line"/>
      <point x="53" y="700" type="line"/>
      <point x="135" y="700" type="line"/>
      <point x="291" y="221" type="line" smooth="yes"/>
      <point x="305" y="179"/>
      <point x="327" y="108"/>
      <point x="334" y="83" type="curve"/>
      <point x="341" y="108"/>
      <point x="365" y="182"/>
      <point x="378" y="223" type="curve" smooth="yes"/>
      <point x="535" y="700" type="line"/>
    </contour>
  </outline>
</glyph>
<glyph name="W" format="1">
  <advance width="856"/>
  <unicode hex="0057"/>
  <outline>
    <contour>
      <point x="799" y="700" type="line"/>
      <point x="659" y="0" type="line"/>
      <point x="571" y="0" type="line"/>
      <point x="461" y="448" type="line" smooth="yes"/>
      <point x="450" y="494"/>
      <point x="435" y="563"/>
      <point x="427" y="606" type="curve"/>
      <point x="419" y="563"/>
      <point x="405" y="496"/>
      <point x="393" y="448" type="curve" smooth="yes"/>
      <point x="283" y="0" type="line"/>
      <point x="197" y="0" type="line"/>
      <point x="57" y="700" type="line"/>
      <point x="135" y="700" type="line"/>
      <point x="217" y="250" type="line" smooth="yes"/>
      <point x="225" y="204"/>
      <point x="237" y="128"/>
      <point x="243" y="94" type="curve"/>
      <point x="249" y="128"/>
      <point x="265" y="203"/>
      <point x="276" y="248" type="curve" smooth="yes"/>
      <point x="387" y="700" type="line"/>
      <point x="471" y="700" type="line"/>
      <point x="582" y="248" type="line" smooth="yes"/>
      <point x="593" y="203"/>
      <point x="609" y="128"/>
      <point x="615" y="94" type="curve"/>
      <point x="621" y="128"/>
      <point x="633" y="204"/>
      <point x="641" y="250" type="curve" smooth="yes"/>
      <point x="723" y="700" type="line"/>
    </contour>
  </outline>
</glyph>
<glyph name="X" format="1">
  <advance width="632"/>
  <unicode hex="0058"/>
  <outline>
    <contour>
      <point x="575" y="0" type="line"/>
      <point x="487" y="0" type="line"/>
      <point x="380" y="183" type="line" smooth="yes"/>
      <point x="354" y="228"/>
      <point x="333" y="264"/>
      <point x="316" y="299" type="curve"/>
      <point x="297" y="263"/>
      <point x="278" y="227"/>
      <point x="252" y="183" type="curve" smooth="yes"/>
      <point x="143" y="0" type="line"/>
      <point x="57" y="0" type="line"/>
      <point x="275" y="364" type="line"/>
      <point x="75" y="700" type="line"/>
      <point x="163" y="700" type="line"/>
      <point x="253" y="547" type="line" smooth="yes"/>
      <point x="279" y="503"/>
      <point x="298" y="467"/>
      <point x="317" y="431" type="curve"/>
      <point x="334" y="466"/>
      <point x="355" y="502"/>
      <point x="381" y="547" type="curve" smooth="yes"/>
      <point x="471" y="700" type="line"/>
      <point x="557" y="700" type="line"/>
      <point x="357" y="366" type="line"/>
    </contour>
  </outline>
</glyph>
<glyph name="Y" format="1">
  <advance width="652"/>
  <unicode hex="0059"/>
  <outline>
    <contour>
      <point x="605" y="700" type="line"/>
      <point x="365" y="278" type="line"/>
      <point x="365" y="0" type="line"/>
      <point x="287" y="0" type="line"/>
      <point x="287" y="277" type="line"/>
      <point x="47" y="700" type="line"/>
      <point x="136" y="700" type="line"/>
      <point x="248" y="499" type="line" smooth="yes"/>
      <point x="276" y="448"/>
      <point x="307" y="390"/>
      <point x="327" y="349" type="curve"/>
      <point x="347" y="390"/>
      <point x="378" y="449"/>
      <point x="406" y="499" type="curve" smooth="yes"/>
      <point x="518" y="700" type="line"/>
    </contour>
  </outline>
</glyph>
<glyph name="Z" format="1">
  <advance width="628"/>
  <unicode hex="005A"/>
  <outline>
    <contour>
      <point x="561" y="0" type="line"/>
      <point x="61" y="0" type="line"/>
      <point x="61" y="68" type="line"/>
      <point x="392" y="519" type="line" smooth="yes"/>
      <point x="420" y="557"/>
      <point x="451" y="598"/>
      <point x="477" y="632" type="curve"/>
      <point x="398" y="632" type="line"/>
      <point x="81" y="632" type="line"/>
      <point x="81" y="700" type="line"/>
      <point x="561" y="700" type="line"/>
      <point x="561" y="632" type="line"/>
      <point x="230" y="181" type="line" smooth="yes"/>
      <point x="202" y="143"/>
      <point x="171" y="102"/>
      <point x="145" y="68" type="curve"/>
      <point x="224" y="68" type="line"/>
      <point x="561" y="68" type="line"/>
    </contour>
  </outline>
</glyph>
<glyph name="bracketleft" format="1">
  <advance width="352"/>
  <unicode hex="005B"/>
  <outline>
    <contour>
      <point x="289" y="-110" type="line"/>
      <point x="95" y="-110" type="line"/>
      <point x="95" y="700" type="line"/>
      <point x="289" y="700" type="line"/>
      <point x="289" y="639" type="line"/>
      <point x="168" y="639" type="line"/>
      <point x="168" y="-49" type="line"/>
      <point x="289" y="-49" type="line"/>
    </contour>
  </outline>
</glyph>
<glyph name="backslash" format="1">
  <advance width="425"/>
  <unicode hex="005C"/>
  <outline>
    <contour>
      <point x="399" y="-90" type="line"/>
      <point x="325" y="-90" type="line"/>
      <point x="26" y="790" type="line"/>
      <point x="100" y="790" type="line"/>
    </contour>
  </outline>
</glyph>
<glyph name="bracketright" format="1">
  <advance width="352"/>
  <unicode hex="005D"/>
  <outline>
    <contour>
      <point x="257" y="-110" type="line"/>
      <point x="63" y="-110" type="line"/>
      <point x="63" y="-49" type="line"/>
      <point x="184" y="-49" type="line"/>
      <point x="184" y="639" type="line"/>
      <point x="63" y="639" type="line"/>
      <point x="63" y="700" type="line"/>
      <point x="257" y="700" type="line"/>
    </contour>
  </outline>
</glyph>
<glyph name="asciicircum" format="1">
  <advance width="558"/>
  <unicode hex="005E"/>
  <outline>
    <contour>
      <point x="511" y="382" type="line"/>
      <point x="425" y="382" type="line"/>
      <point x="278" y="618" type="line"/>
      <point x="131" y="382" type="line"/>
      <point x="47" y="382" type="line"/>
      <point x="251" y="700" type="line"/>
      <point x="307" y="700" type="line"/>
    </contour>
  </outline>
</glyph>
<glyph name="grave" format="1">
  <advance width="500"/>
  <unicode hex="0060"/>
  <outline>
    <contour>
      <point x="326" y="595" type="line"/>
      <point x="267" y="595" type="line"/>
      <point x="116" y="755" type="line"/>
      <point x="223" y="755" type="line"/>
    </contour>
  </outline>
</glyph>
<glyph name="a" format="1">
  <advance width="539"/>
  <unicode hex="0061"/>
  <outline>
    <contour>
      <point x="459" y="0" type="line"/>
      <point x="384" y="0" type="line"/>
      <point x="384" y="64" type="line"/>
      <point x="347" y="24"/>
      <point x="295" y="-11"/>
      <point x="220" y="-11" type="curve" smooth="yes"/>
      <point x="138" y="-11"/>
      <point x="52" y="30"/>
      <point x="52" y="157" type="curve" smooth="yes"/>
      <point x="52" y="275"/>
      <point x="149" y="325"/>
      <point x="253" y="325" type="curve" smooth="yes"/>
      <point x="306" y="325"/>
      <point x="353" y="312"/>
      <point x="384" y="295" type="curve"/>
      <point x="384" y="357" type="line" smooth="yes"/>
      <point x="384" y="435"/>
      <point x="347" y="473"/>
      <point x="270" y="473" type="curve" smooth="yes"/>
      <point x="215" y="473"/>
      <point x="170" y="458"/>
      <point x="127" y="433" type="curve"/>
      <point x="99" y="494" type="line"/>
      <point x="145" y="519"/>
      <point x="207" y="536"/>
      <point x="275" y="536" type="curve" smooth="yes"/>
      <point x="388" y="536"/>
      <point x="459" y="488"/>
      <point x="459" y="366" type="curve" smooth="yes"/>
    </contour>
    <contour>
      <point x="384" y="129" type="curve"/>
      <point x="384" y="235" type="line"/>
      <point x="350" y="254"/>
      <point x="313" y="265"/>
      <point x="249" y="265" type="curve" smooth="yes"/>
      <point x="172" y="265"/>
      <point x="126" y="228"/>
      <point x="126" y="162" type="curve" smooth="yes"/>
      <point x="126" y="84"/>
      <point x="169" y="50"/>
      <point x="233" y="50" type="curve" smooth="yes"/>
      <point x="301" y="50"/>
      <point x="352" y="85"/>
    </contour>
  </outline>
</glyph>
<glyph name="c" format="1">
  <advance width="495"/>
  <unicode hex="0063"/>
  <outline>
    <contour>
      <point x="447" y="474" type="curve"/>
      <point x="402" y="418" type="line"/>
      <point x="364" y="452"/>
      <point x="329" y="471"/>
      <point x="276" y="471" type="curve" smooth="yes"/>
      <point x="194" y="471"/>
      <point x="131" y="397"/>
      <point x="131" y="266" type="curve" smooth="yes"/>
      <point x="131" y="137"/>
      <point x="186" y="54"/>
      <point x="279" y="54" type="curve" smooth="yes"/>
      <point x="330" y="54"/>
      <point x="364" y="75"/>
      <point x="400" y="110" type="curve"/>
      <point x="445" y="62" type="line"/>
      <point x="401" y="17"/>
      <point x="350" y="-11"/>
      <point x="276" y="-11" type="curve" smooth="yes"/>
      <point x="161" y="-11"/>
      <point x="55" y="77"/>
      <point x="55" y="260" type="curve" smooth="yes"/>
      <point x="55" y="454"/>
      <point x="171" y="536"/>
      <point x="281" y="536" type="curve" smooth="yes"/>
      <point x="352" y="536"/>
      <point x="406" y="510"/>
    </contour>
  </outline>
</glyph>
<glyph name="e" format="1">
  <advance width="540"/>
  <unicode hex="0065"/>
  <outline>
    <contour>
      <point x="483" y="278" type="curve" smooth="yes"/>
      <point x="483" y="260"/>
      <point x="482" y="249"/>
      <point x="480" y="237" type="curve"/>
      <point x="130" y="237" type="line"/>
      <point x="137" y="125"/>
      <point x="190" y="54"/>
      <point x="276" y="54" type="curve" smooth="yes"/>
      <point x="337" y="54"/>
      <point x="373" y="72"/>
      <point x="421" y="104" type="curve"/>
      <point x="456" y="50" type="line"/>
      <point x="393" y="10"/>
      <point x="347" y="-11"/>
      <point x="268" y="-11" type="curve" smooth="yes"/>
      <point x="172" y="-11"/>
      <point x="55" y="59"/>
      <point x="55" y="265" type="curve" smooth="yes"/>
      <point x="55" y="432"/>
      <point x="147" y="536"/>
      <point x="272" y="536" type="curve" smooth="yes"/>
      <point x="409" y="536"/>
      <point x="483" y="428"/>
    </contour>
    <contour>
      <point x="413" y="298" type="line"/>
      <point x="407" y="400"/>
      <point x="363" y="471"/>
      <point x="271" y="471" type="curve" smooth="yes"/>
      <point x="193" y="471"/>
      <point x="139" y="415"/>
      <point x="130" y="298" type="curve"/>
    </contour>
  </outline>
</glyph>
<glyph name="f" format="1">
  <advance width="356"/>
  <unicode hex="0066"/>
  <outline>
    <contour>
      <point x="309" y="646" type="line"/>
      <point x="292" y="654"/>
      <point x="272" y="658"/>
      <point x="248" y="658" type="curve" smooth="yes"/>
      <point x="217" y="658"/>
      <point x="194" y="647"/>
      <point x="194" y="603" type="curve" smooth="yes"/>
      <point x="194" y="525" type="line"/>
      <point x="297" y="525" type="line"/>
      <point x="297" y="462" type="line"/>
      <point x="194" y="462" type="line"/>
      <point x="194" y="0" type="line"/>
      <point x="119" y="0" type="line"/>
      <point x="119" y="462" type="line"/>
      <point x="47" y="462" type="line"/>
      <point x="47" y="525" type="line"/>
      <point x="119" y="525" type="line"/>
      <point x="119" y="597" type="line" smooth="yes"/>
      <point x="119" y="691"/>
      <point x="170" y="726"/>
      <point x="243" y="726" type="curve" smooth="yes"/>
      <point x="273" y="726"/>
      <point x="291" y="723"/>
      <point x="309" y="717" type="curve"/>
    </contour>
  </outline>
</glyph>
<glyph name="g" format="1">
  <advance width="559"/>
  <unicode hex="0067"/>
  <outline>
    <contour>
      <point x="476" y="47" type="line" smooth="yes"/>
      <point x="476" y="-111"/>
      <point x="405" y="-187"/>
      <point x="210" y="-193" type="curve"/>
      <point x="186" y="-136" type="line"/>
      <point x="361" y="-131"/>
      <point x="401" y="-85"/>
      <point x="401" y="37" type="curve" smooth="yes"/>
      <point x="401" y="64" type="line"/>
      <point x="364" y="24"/>
      <point x="314" y="-11"/>
      <point x="243" y="-11" type="curve" smooth="yes"/>
      <point x="138" y="-11"/>
      <point x="55" y="69"/>
      <point x="55" y="254" type="curve" smooth="yes"/>
      <point x="55" y="440"/>
      <point x="143" y="536"/>
      <point x="253" y="536" type="curve" smooth="yes"/>
      <point x="319" y="536"/>
      <point x="364" y="508"/>
      <point x="401" y="466" type="curve"/>
      <point x="401" y="525" type="line"/>
      <point x="476" y="525" type="line"/>
    </contour>
    <contour>
      <point x="401" y="130" type="curve"/>
      <point x="401" y="392" type="line"/>
      <point x="372" y="436"/>
      <point x="321" y="471"/>
      <point x="259" y="471" type="curve" smooth="yes"/>
      <point x="172" y="471"/>
      <point x="129" y="396"/>
      <point x="129" y="255" type="curve" smooth="yes"/>
      <point x="129" y="123"/>
      <point x="179" y="54"/>
      <point x="262" y="54" type="curve" smooth="yes"/>
      <point x="318" y="54"/>
      <point x="364" y="84"/>
    </contour>
  </outline>
</glyph>
<glyph name="i" format="1">
  <advance width="251"/>
  <unicode hex="0069"/>
  <outline>
    <contour>
      <point x="179" y="672" type="curve" smooth="yes"/>
      <point x="179" y="643"/>
      <point x="155" y="619"/>
      <point x="127" y="619" type="curve" smooth="yes"/>
      <point x="96" y="619"/>
      <point x="72" y="643"/>
      <point x="72" y="672" type="curve" smooth="yes"/>
      <point x="72" y="702"/>
      <point x="96" y="726"/>
      <point x="127" y="726" type="curve" smooth="yes"/>
      <point x="155" y="726"/>
      <point x="179" y="702"/>
    </contour>
    <contour>
      <point x="163" y="0" type="line"/>
      <point x="88" y="0" type="line"/>
      <point x="88" y="525" type="line"/>
      <point x="163" y="525" type="line"/>
    </contour>
  </outline>
</glyph>
<glyph name="j" format="1">
  <advance width="251"/>
  <unicode hex="006A"/>
  <outline>
    <contour>
      <point x="179" y="672" type="curve" smooth="yes"/>
      <point x="179" y="643"/>
      <point x="155" y="619"/>
      <point x="127" y="619" type="curve" smooth="yes"/>
      <point x="96" y="619"/>
      <point x="72" y="643"/>
      <point x="72" y="672" type="curve" smooth="yes"/>
      <point x="72" y="702"/>
      <point x="96" y="726"/>
      <point x="127" y="726" type="curve" smooth="yes"/>
      <point x="155" y="726"/>
      <point x="179" y="702"/>
    </contour>
    <contour>
      <point x="163" y="12" type="line" smooth="yes"/>
      <point x="163" y="-108"/>
      <point x="140" y="-160"/>
      <point x="8" y="-193" type="curve"/>
      <point x="-17" y="-137" type="line"/>
      <point x="78" y="-108"/>
      <point x="88" y="-83"/>
      <point x="88" y="13" type="curve" smooth="yes"/>
      <point x="88" y="525" type="line"/>
      <point x="163" y="525" type="line"/>
    </contour>
  </outline>
</glyph>
<glyph name="k" format="1">
  <advance width="505"/>
  <unicode hex="006B"/>
  <outline>
    <contour>
      <point x="463" y="0" type="line"/>
      <point x="382" y="0" type="line"/>
      <point x="249" y="276" type="line"/>
      <point x="158" y="151" type="line"/>
      <point x="158" y="0" type="line"/>
      <point x="83" y="0" type="line"/>
      <point x="83" y="687" type="line"/>
      <point x="158" y="729" type="line"/>
      <point x="158" y="276" type="line"/>
      <point x="158" y="249" type="line"/>
      <point x="179" y="281" type="line"/>
      <point x="351" y="525" type="line"/>
      <point x="435" y="525" type="line"/>
      <point x="297" y="339" type="line"/>
    </contour>
  </outline>
</glyph>
<glyph name="m" format="1">
  <advance width="848"/>
  <unicode hex="006D"/>
  <outline>
    <contour>
      <point x="768" y="0" type="line"/>
      <point x="693" y="0" type="line"/>
      <point x="693" y="307" type="line" smooth="yes"/>
      <point x="693" y="427"/>
      <point x="656" y="471"/>
      <point x="580" y="471" type="curve" smooth="yes"/>
      <point x="509" y="471"/>
      <point x="463" y="423"/>
      <point x="463" y="307" type="curve" smooth="yes"/>
      <point x="463" y="0" type="line"/>
      <point x="388" y="0" type="line"/>
      <point x="388" y="307" type="line" smooth="yes"/>
      <point x="388" y="427"/>
      <point x="348" y="471"/>
      <point x="275" y="471" type="curve" smooth="yes"/>
      <point x="203" y="471"/>
      <point x="158" y="423"/>
      <point x="158" y="307" type="curve" smooth="yes"/>
      <point x="158" y="0" type="line"/>
      <point x="83" y="0" type="line"/>
      <point x="83" y="525" type="line"/>
      <point x="158" y="525" type="line"/>
      <point x="158" y="461" type="line"/>
      <point x="185" y="506"/>
      <point x="229" y="536"/>
      <point x="291" y="536" type="curve" smooth="yes"/>
      <point x="365" y="536"/>
      <point x="410" y="496"/>
      <point x="435" y="446" type="curve"/>
      <point x="466" y="496"/>
      <point x="509" y="536"/>
      <point x="594" y="536" type="curve" smooth="yes"/>
      <point x="701" y="536"/>
      <point x="768" y="473"/>
      <point x="768" y="320" type="curve" smooth="yes"/>
    </contour>
  </outline>
</glyph>
<glyph name="n" format="1">
  <advance width="567"/>
  <unicode hex="006E"/>
  <outline>
    <contour>
      <point x="487" y="0" type="line"/>
      <point x="412" y="0" type="line"/>
      <point x="412" y="307" type="line" smooth="yes"/>
      <point x="412" y="420"/>
      <point x="372" y="471"/>
      <point x="288" y="471" type="curve" smooth="yes"/>
      <point x="215" y="471"/>
      <point x="158" y="422"/>
      <point x="158" y="307" type="curve" smooth="yes"/>
      <point x="158" y="0" type="line"/>
      <point x="83" y="0" type="line"/>
      <point x="83" y="525" type="line"/>
      <point x="158" y="525" type="line"/>
      <point x="158" y="461" type="line"/>
      <point x="188" y="505"/>
      <point x="237" y="536"/>
      <point x="303" y="536" type="curve" smooth="yes"/>
      <point x="414" y="536"/>
      <point x="487" y="471"/>
      <point x="487" y="320" type="curve" smooth="yes"/>
    </contour>
  </outline>
</glyph>
<glyph name="o" format="1">
  <advance width="566"/>
  <unicode hex="006F"/>
  <outline>
    <contour>
      <point x="511" y="266" type="curve" smooth="yes"/>
      <point x="511" y="88"/>
      <point x="409" y="-11"/>
      <point x="281" y="-11" type="curve" smooth="yes"/>
      <point x="153" y="-11"/>
      <point x="55" y="84"/>
      <point x="55" y="262" type="curve" smooth="yes"/>
      <point x="55" y="440"/>
      <point x="157" y="536"/>
      <point x="285" y="536" type="curve" smooth="yes"/>
      <point x="413" y="536"/>
      <point x="511" y="444"/>
    </contour>
    <contour>
      <point x="436" y="264" type="curve" smooth="yes"/>
      <point x="436" y="402"/>
      <point x="374" y="471"/>
      <point x="283" y="471" type="curve" smooth="yes"/>
      <point x="192" y="471"/>
      <point x="131" y="402"/>
      <point x="131" y="264" type="curve" smooth="yes"/>
      <point x="131" y="126"/>
      <point x="192" y="54"/>
      <point x="283" y="54" type="curve" smooth="yes"/>
      <point x="374" y="54"/>
      <point x="436" y="126"/>
    </contour>
  </outline>
</glyph>
<glyph name="p" format="1">
  <advance width="559"/>
  <unicode hex="0070"/>
  <outline>
    <contour>
      <point x="504" y="271" type="curve" smooth="yes"/>
      <point x="504" y="85"/>
      <point x="416" y="-11"/>
      <point x="306" y="-11" type="curve" smooth="yes"/>
      <point x="240" y="-11"/>
      <point x="195" y="17"/>
      <point x="158" y="59" type="curve"/>
      <point x="158" y="-151" type="line"/>
      <point x="83" y="-193" type="line"/>
      <point x="83" y="525" type="line"/>
      <point x="158" y="525" type="line"/>
      <point x="158" y="461" type="line"/>
      <point x="195" y="501"/>
      <point x="245" y="536"/>
      <point x="316" y="536" type="curve" smooth="yes"/>
      <point x="421" y="536"/>
      <point x="504" y="456"/>
    </contour>
    <contour>
      <point x="430" y="270" type="curve" smooth="yes"/>
      <point x="430" y="402"/>
      <point x="380" y="471"/>
      <point x="297" y="471" type="curve" smooth="yes"/>
      <point x="241" y="471"/>
      <point x="195" y="441"/>
      <point x="158" y="395" type="curve"/>
      <point x="158" y="133" type="line"/>
      <point x="187" y="89"/>
      <point x="238" y="54"/>
      <point x="300" y="54" type="curve" smooth="yes"/>
      <point x="387" y="54"/>
      <point x="430" y="129"/>
    </contour>
  </outline>
</glyph>
<glyph name="r" format="1">
  <advance width="407"/>
  <unicode hex="0072"/>
  <outline>
    <contour>
      <point x="370" y="523" type="curve"/>
      <point x="351" y="447" type="line"/>
      <point x="330" y="459"/>
      <point x="307" y="467"/>
      <point x="272" y="467" type="curve" smooth="yes"/>
      <point x="199" y="467"/>
      <point x="158" y="408"/>
      <point x="158" y="308" type="curve" smooth="yes"/>
      <point x="158" y="0" type="line"/>
      <point x="83" y="0" type="line"/>
      <point x="83" y="525" type="line"/>
      <point x="158" y="525" type="line"/>
      <point x="158" y="460" type="line"/>
      <point x="182" y="502"/>
      <point x="232" y="536"/>
      <point x="288" y="536" type="curve" smooth="yes"/>
      <point x="327" y="536"/>
      <point x="352" y="531"/>
    </contour>
  </outline>
</glyph>
<glyph name="s" format="1">
  <advance width="467"/>
  <unicode hex="0073"/>
  <outline>
    <contour>
      <point x="408" y="137" type="curve" smooth="yes"/>
      <point x="408" y="34"/>
      <point x="319" y="-11"/>
      <point x="228" y="-11" type="curve" smooth="yes"/>
      <point x="156" y="-11"/>
      <point x="93" y="16"/>
      <point x="43" y="56" type="curve"/>
      <point x="87" y="111" type="line"/>
      <point x="129" y="74"/>
      <point x="178" y="53"/>
      <point x="230" y="53" type="curve" smooth="yes"/>
      <point x="302" y="53"/>
      <point x="336" y="83"/>
      <point x="336" y="134" type="curve" smooth="yes"/>
      <point x="336" y="177"/>
      <point x="305" y="201"/>
      <point x="212" y="241" type="curve" smooth="yes"/>
      <point x="107" y="286"/>
      <point x="63" y="318"/>
      <point x="63" y="402" type="curve" smooth="yes"/>
      <point x="63" y="482"/>
      <point x="132" y="536"/>
      <point x="227" y="536" type="curve" smooth="yes"/>
      <point x="299" y="536"/>
      <point x="355" y="513"/>
      <point x="395" y="480" type="curve"/>
      <point x="353" y="425" type="line"/>
      <point x="312" y="457"/>
      <point x="278" y="472"/>
      <point x="222" y="472" type="curve" smooth="yes"/>
      <point x="167" y="472"/>
      <point x="135" y="445"/>
      <point x="135" y="407" type="curve" smooth="yes"/>
      <point x="135" y="363"/>
      <point x="162" y="345"/>
      <point x="251" y="305" type="curve" smooth="yes"/>
      <point x="350" y="260"/>
      <point x="408" y="231"/>
    </contour>
  </outline>
</glyph>
<glyph name="t" format="1">
  <advance width="372"/>
  <unicode hex="0074"/>
  <outline>
    <contour>
      <point x="309" y="462" type="line"/>
      <point x="179" y="462" type="line"/>
      <point x="179" y="120" type="line" smooth="yes"/>
      <point x="179" y="73"/>
      <point x="192" y="57"/>
      <point x="232" y="57" type="curve" smooth="yes"/>
      <point x="262" y="57"/>
      <point x="282" y="62"/>
      <point x="306" y="72" type="curve"/>
      <point x="301" y="7" type="line"/>
      <point x="272" y="-5"/>
      <point x="244" y="-11"/>
      <point x="204" y="-11" type="curve" smooth="yes"/>
      <point x="139" y="-11"/>
      <point x="104" y="21"/>
      <point x="104" y="108" type="curve" smooth="yes"/>
      <point x="104" y="462" type="line"/>
      <point x="39" y="462" type="line"/>
      <point x="39" y="525" type="line"/>
      <point x="104" y="525" type="line"/>
      <point x="104" y="687" type="line"/>
      <point x="179" y="729" type="line"/>
      <point x="179" y="525" type="line"/>
      <point x="309" y="525" type="line"/>
    </contour>
  </outline>
</glyph>
<glyph name="u" format="1">
  <advance width="567"/>
  <unicode hex="0075"/>
  <outline>
    <contour>
      <point x="484" y="0" type="line"/>
      <point x="409" y="0" type="line"/>
      <point x="409" y="64" type="line"/>
      <point x="379" y="20"/>
      <point x="330" y="-11"/>
      <point x="264" y="-11" type="curve" smooth="yes"/>
      <point x="153" y="-11"/>
      <point x="80" y="54"/>
      <point x="80" y="205" type="curve" smooth="yes"/>
      <point x="80" y="525" type="line"/>
      <point x="155" y="525" type="line"/>
      <point x="155" y="218" type="line" smooth="yes"/>
      <point x="155" y="105"/>
      <point x="195" y="54"/>
      <point x="279" y="54" type="curve" smooth="yes"/>
      <point x="352" y="54"/>
      <point x="409" y="103"/>
      <point x="409" y="218" type="curve" smooth="yes"/>
      <point x="409" y="525" type="line"/>
      <point x="484" y="525" type="line"/>
    </contour>
  </outline>
</glyph>
<glyph name="v" format="1">
  <advance width="522"/>
  <unicode hex="0076"/>
  <outline>
    <contour>
      <point x="482" y="525" type="line"/>
      <point x="294" y="0" type="line"/>
      <point x="228" y="0" type="line"/>
      <point x="40" y="525" type="line"/>
      <point x="120" y="525" type="line"/>
      <point x="254" y="112" type="line"/>
      <point x="262" y="87" type="line"/>
      <point x="270" y="112" type="line"/>
      <point x="404" y="525" type="line"/>
    </contour>
  </outline>
</glyph>
<glyph name="w" format="1">
  <advance width="730"/>
  <unicode hex="0077"/>
  <outline>
    <contour>
      <point x="683" y="525" type="line"/>
      <point x="544" y="0" type="line"/>
      <point x="475" y="0" type="line"/>
      <point x="380" y="352" type="line" smooth="yes"/>
      <point x="375" y="370"/>
      <point x="367" y="407"/>
      <point x="364" y="426" type="curve"/>
      <point x="361" y="407"/>
      <point x="353" y="370"/>
      <point x="348" y="352" type="curve" smooth="yes"/>
      <point x="253" y="0" type="line"/>
      <point x="186" y="0" type="line"/>
      <point x="47" y="525" type="line"/>
      <point x="124" y="525" type="line"/>
      <point x="206" y="178" type="line" smooth="yes"/>
      <point x="210" y="160"/>
      <point x="217" y="123"/>
      <point x="221" y="104" type="curve"/>
      <point x="225" y="123"/>
      <point x="233" y="160"/>
      <point x="238" y="178" type="curve" smooth="yes"/>
      <point x="332" y="525" type="line"/>
      <point x="400" y="525" type="line"/>
      <point x="494" y="178" type="line" smooth="yes"/>
      <point x="499" y="160"/>
      <point x="507" y="123"/>
      <point x="511" y="104" type="curve"/>
      <point x="515" y="123"/>
      <point x="522" y="160"/>
      <point x="526" y="178" type="curve" smooth="yes"/>
      <point x="608" y="525" type="line"/>
    </contour>
  </outline>
</glyph>
<glyph name="x" format="1">
  <advance width="504"/>
  <unicode hex="0078"/>
  <outline>
    <contour>
      <point x="453" y="0" type="line"/>
      <point x="370" y="0" type="line"/>
      <point x="266" y="182" type="line"/>
      <point x="250" y="211" type="line"/>
      <point x="234" y="182" type="line"/>
      <point x="129" y="0" type="line"/>
      <point x="51" y="0" type="line"/>
      <point x="213" y="271" type="line"/>
      <point x="62" y="525" type="line"/>
      <point x="145" y="525" type="line"/>
      <point x="238" y="362" type="line"/>
      <point x="254" y="333" type="line"/>
      <point x="270" y="362" type="line"/>
      <point x="364" y="525" type="line"/>
      <point x="442" y="525" type="line"/>
      <point x="291" y="273" type="line"/>
    </contour>
  </outline>
</glyph>
<glyph name="y" format="1">
  <advance width="531"/>
  <unicode hex="0079"/>
  <outline>
    <contour>
      <point x="491" y="525" type="line"/>
      <point x="230" y="-185" type="line"/>
      <point x="155" y="-185" type="line"/>
      <point x="227" y="6" type="line"/>
      <point x="40" y="525" type="line"/>
      <point x="119" y="525" type="line"/>
      <point x="247" y="144" type="line"/>
      <point x="265" y="90" type="line"/>
      <point x="283" y="143" type="line"/>
      <point x="412" y="525" type="line"/>
    </contour>
  </outline>
</glyph>
<glyph name="z" format="1">
  <advance width="492"/>
  <unicode hex="007A"/>
  <outline>
    <contour>
      <point x="426" y="0" type="line"/>
      <point x="54" y="0" type="line"/>
      <point x="54" y="55" type="line"/>
      <point x="341" y="462" type="line"/>
      <point x="77" y="462" type="line"/>
      <point x="77" y="525" type="line"/>
      <point x="426" y="525" type="line"/>
      <point x="426" y="470" type="line"/>
      <point x="139" y="63" type="line"/>
      <point x="426" y="63" type="line"/>
    </contour>
  </outline>
</glyph>
<glyph name="braceleft" format="1">
  <advance width="397"/>
  <unicode hex="007B"/>
  <outline>
    <contour>
      <point x="344" y="-110" type="line"/>
      <point x="203" y="-106"/>
      <point x="140" y="-38"/>
      <point x="140" y="103" type="curve" smooth="yes"/>
      <point x="140" y="189" type="line" smooth="yes"/>
      <point x="140" y="247"/>
      <point x="126" y="261"/>
      <point x="81" y="261" type="curve" smooth="yes"/>
      <point x="57" y="261" type="line"/>
      <point x="57" y="331" type="line"/>
      <point x="81" y="331" type="line" smooth="yes"/>
      <point x="126" y="331"/>
      <point x="140" y="345"/>
      <point x="140" y="403" type="curve" smooth="yes"/>
      <point x="140" y="492" type="line" smooth="yes"/>
      <point x="140" y="633"/>
      <point x="203" y="701"/>
      <point x="344" y="705" type="curve"/>
      <point x="344" y="642" type="line"/>
      <point x="251" y="632"/>
      <point x="214" y="593"/>
      <point x="214" y="501" type="curve" smooth="yes"/>
      <point x="214" y="431" type="line" smooth="yes"/>
      <point x="214" y="348"/>
      <point x="200" y="316"/>
      <point x="155" y="295" type="curve"/>
      <point x="200" y="274"/>
      <point x="214" y="242"/>
      <point x="214" y="159" type="curve" smooth="yes"/>
      <point x="214" y="94" type="line" smooth="yes"/>
      <point x="214" y="2"/>
      <point x="251" y="-37"/>
      <point x="344" y="-47" type="curve"/>
    </contour>
  </outline>
</glyph>
<glyph name="bar" format="1">
  <advance width="304"/>
  <unicode hex="007C"/>
  <outline>
    <contour>
      <point x="188" y="-185" type="line"/>
      <point x="116" y="-185" type="line"/>
      <point x="116" y="800" type="line"/>
      <point x="188" y="800" type="line"/>
    </contour>
  </outline>
</glyph>
<glyph name="braceright" format="1">
  <advance width="397"/>
  <unicode hex="007D"/>
  <outline>
    <contour>
      <point x="340" y="264" type="line"/>
      <point x="316" y="264" type="line" smooth="yes"/>
      <point x="271" y="264"/>
      <point x="257" y="250"/>
      <point x="257" y="192" type="curve" smooth="yes"/>
      <point x="257" y="103" type="line" smooth="yes"/>
      <point x="257" y="-38"/>
      <point x="194" y="-106"/>
      <point x="53" y="-110" type="curve"/>
      <point x="53" y="-47" type="line"/>
      <point x="146" y="-37"/>
      <point x="183" y="2"/>
      <point x="183" y="94" type="curve" smooth="yes"/>
      <point x="183" y="164" type="line" smooth="yes"/>
      <point x="183" y="247"/>
      <point x="197" y="279"/>
      <point x="242" y="300" type="curve"/>
      <point x="197" y="321"/>
      <point x="183" y="353"/>
      <point x="183" y="436" type="curve" smooth="yes"/>
      <point x="183" y="501" type="line" smooth="yes"/>
      <point x="183" y="593"/>
      <point x="146" y="632"/>
      <point x="53" y="642" type="curve"/>
      <point x="53" y="705" type="line"/>
      <point x="194" y="701"/>
      <point x="257" y="633"/>
      <point x="257" y="492" type="curve" smooth="yes"/>
      <point x="257" y="406" type="line" smooth="yes"/>
      <point x="257" y="348"/>
      <point x="271" y="334"/>
      <point x="316" y="334" type="curve" smooth="yes"/>
      <point x="340" y="334" type="line"/>
    </contour>
  </outline>
</glyph>
<glyph name="asciitilde" format="1">
  <advance width="552"/>
  <unicode hex="007E"/>
  <outline>
    <contour>
      <point x="509" y="422" type="line"/>
      <point x="475" y="338"/>
      <point x="437" y="296"/>
      <point x="366" y="296" type="curve" smooth="yes"/>
      <point x="326" y="296"/>
      <point x="302" y="310"/>
      <point x="272" y="330" type="curve" smooth="yes"/>
      <point x="231" y="357"/>
      <point x="206" y="369"/>
      <point x="186" y="369" type="curve" smooth="yes"/>
      <point x="150" y="369"/>
      <point x="134" y="347"/>
      <point x="109" y="290" type="curve"/>
      <point x="43" y="320" type="line"/>
      <point x="77" y="404"/>
      <point x="115" y="446"/>
      <point x="186" y="446" type="curve" smooth="yes"/>
      <point x="224" y="446"/>
      <point x="248" y="433"/>
      <point x="280" y="412" type="curve" smooth="yes"/>
      <point x="319" y="387"/>
      <point x="342" y="373"/>
      <point x="366" y="373" type="curve" smooth="yes"/>
      <point x="402" y="373"/>
      <point x="416" y="392"/>
      <point x="443" y="452" type="curve"/>
    </contour>
  </outline>
</glyph>
<glyph name="exclamdown" format="1">
  <advance width="263"/>
  <unicode hex="00A1"/>
  <outline>
    <contour>
      <point x="193" y="650" type="curve" smooth="yes"/>
      <point x="193" y="617"/>
      <point x="165" y="587"/>
      <point x="132" y="587" type="curve" smooth="yes"/>
      <point x="100" y="587"/>
      <point x="71" y="617"/>
      <point x="71" y="650" type="curve" smooth="yes"/>
      <point x="71" y="683"/>
      <point x="100" y="711"/>
      <point x="132" y="711" type="curve" smooth="yes"/>
      <point x="165" y="711"/>
      <point x="193" y="683"/>
    </contour>
    <contour>
      <point x="170" y="0" type="line"/>
      <point x="93" y="0" type="line"/>
      <point x="93" y="329" type="line"/>
      <point x="111" y="512" type="line"/>
      <point x="153" y="512" type="line"/>
      <point x="170" y="329" type="line"/>
    </contour>
  </outline>
</glyph>
<glyph name="cent" format="1">
  <advance width="495"/>
  <unicode hex="00A2"/>
  <outline>
    <contour>
      <point x="447" y="568" type="curve"/>
      <point x="404" y="514" type="line"/>
      <point x="361" y="550"/>
      <point x="331" y="565"/>
      <point x="276" y="565" type="curve" smooth="yes"/>
      <point x="194" y="565"/>
      <point x="131" y="491"/>
      <point x="131" y="360" type="curve" smooth="yes"/>
      <point x="131" y="231"/>
      <point x="186" y="148"/>
      <point x="279" y="148" type="curve" smooth="yes"/>
      <point x="330" y="148"/>
      <point x="365" y="168"/>
      <point x="401" y="203" type="curve"/>
      <point x="445" y="156" type="line"/>
      <point x="409" y="119"/>
      <point x="368" y="94"/>
      <point x="314" y="86" type="curve"/>
      <point x="314" y="-11" type="line"/>
      <point x="237" y="-11" type="line"/>
      <point x="237" y="86" type="line"/>
      <point x="138" y="104"/>
      <point x="55" y="192"/>
      <point x="55" y="354" type="curve" smooth="yes"/>
      <point x="55" y="522"/>
      <point x="142" y="606"/>
      <point x="237" y="626" type="curve"/>
      <point x="237" y="720" type="line"/>
      <point x="314" y="720" type="line"/>
      <point x="314" y="628" type="line"/>
      <point x="369" y="621"/>
      <point x="413" y="598"/>
    </contour>
  </outline>
</glyph>
<glyph name="sterling" format="1">
  <advance width="611"/>
  <unicode hex="00A3"/>
  <outline>
    <contour>
      <point x="552" y="0" type="line"/>
      <point x="84" y="0" type="line"/>
      <point x="84" y="70" type="line"/>
      <point x="144" y="139"/>
      <point x="181" y="196"/>
      <point x="182" y="293" type="curve"/>
      <point x="84" y="293" type="line"/>
      <point x="84" y="361" type="line"/>
      <point x="171" y="361" type="line"/>
      <point x="163" y="382"/>
      <point x="151" y="402"/>
      <point x="138" y="424" type="curve" smooth="yes"/>
      <point x="115" y="461"/>
      <point x="104" y="488"/>
      <point x="104" y="536" type="curve" smooth="yes"/>
      <point x="104" y="649"/>
      <point x="202" y="711"/>
      <point x="328" y="711" type="curve" smooth="yes"/>
      <point x="415" y="711"/>
      <point x="482" y="680"/>
      <point x="544" y="624" type="curve"/>
      <point x="497" y="567" type="line"/>
      <point x="447" y="615"/>
      <point x="391" y="641"/>
      <point x="326" y="641" type="curve" smooth="yes"/>
      <point x="229" y="641"/>
      <point x="181" y="593"/>
      <point x="181" y="537" type="curve" smooth="yes"/>
      <point x="181" y="505"/>
      <point x="192" y="478"/>
      <point x="213" y="443" type="curve" smooth="yes"/>
      <point x="226" y="421"/>
      <point x="240" y="393"/>
      <point x="249" y="361" type="curve"/>
      <point x="401" y="361" type="line"/>
      <point x="401" y="293" type="line"/>
      <point x="256" y="293" type="line"/>
      <point x="253" y="192"/>
      <point x="214" y="124"/>
      <point x="172" y="71" type="curve"/>
      <point x="552" y="71" type="line"/>
    </contour>
  </outline>
</glyph>
<glyph name="yen" format="1">
  <advance width="612"/>
  <unicode hex="00A5"/>
  <outline>
    <contour>
      <point x="575" y="700" type="line"/>
      <point x="345" y="278" type="line"/>
      <point x="345" y="200" type="line"/>
      <point x="500" y="200" type="line"/>
      <point x="500" y="131" type="line"/>
      <point x="345" y="131" type="line"/>
      <point x="345" y="0" type="line"/>
      <point x="267" y="0" type="line"/>
      <point x="267" y="131" type="line"/>
      <point x="103" y="131" type="line"/>
      <point x="103" y="200" type="line"/>
      <point x="267" y="200" type="line"/>
      <point x="267" y="277" type="line"/>
      <point x="37" y="700" type="line"/>
      <point x="126" y="700" type="line"/>
      <point x="230" y="499" type="line" smooth="yes"/>
      <point x="257" y="447"/>
      <point x="288" y="385"/>
      <point x="307" y="344" type="curve"/>
      <point x="326" y="385"/>
      <point x="358" y="449"/>
      <point x="384" y="499" type="curve" smooth="yes"/>
      <point x="488" y="700" type="line"/>
    </contour>
  </outline>
</glyph>
<glyph name="section" format="1">
  <advance width="628"/>
  <unicode hex="00A7"/>
  <outline>
    <contour>
      <point x="573" y="268" type="curve" smooth="yes"/>
      <point x="573" y="187"/>
      <point x="519" y="133"/>
      <point x="449" y="94" type="curve"/>
      <point x="483" y="68"/>
      <point x="503" y="34"/>
      <point x="503" y="-12" type="curve" smooth="yes"/>
      <point x="503" y="-105"/>
      <point x="423" y="-164"/>
      <point x="309" y="-164" type="curve" smooth="yes"/>
      <point x="233" y="-164"/>
      <point x="173" y="-138"/>
      <point x="116" y="-92" type="curve"/>
      <point x="162" y="-36" type="line"/>
      <point x="215" y="-80"/>
      <point x="254" y="-94"/>
      <point x="321" y="-94" type="curve" smooth="yes"/>
      <point x="382" y="-94"/>
      <point x="426" y="-64"/>
      <point x="426" y="-18" type="curve" smooth="yes"/>
      <point x="426" y="27"/>
      <point x="395" y="58"/>
      <point x="283" y="86" type="curve" smooth="yes"/>
      <point x="108" y="130"/>
      <point x="55" y="179"/>
      <point x="55" y="279" type="curve" smooth="yes"/>
      <point x="55" y="360"/>
      <point x="109" y="414"/>
      <point x="179" y="453" type="curve"/>
      <point x="145" y="479"/>
      <point x="125" y="513"/>
      <point x="125" y="559" type="curve" smooth="yes"/>
      <point x="125" y="652"/>
      <point x="205" y="711"/>
      <point x="319" y="711" type="curve" smooth="yes"/>
      <point x="395" y="711"/>
      <point x="455" y="685"/>
      <point x="512" y="639" type="curve"/>
      <point x="466" y="583" type="line"/>
      <point x="413" y="627"/>
      <point x="374" y="641"/>
      <point x="307" y="641" type="curve" smooth="yes"/>
      <point x="246" y="641"/>
      <point x="202" y="611"/>
      <point x="202" y="565" type="curve" smooth="yes"/>
      <point x="202" y="520"/>
      <point x="233" y="489"/>
      <point x="345" y="461" type="curve" smooth="yes"/>
      <point x="520" y="417"/>
      <point x="573" y="368"/>
    </contour>
    <contour>
      <point x="496" y="262" type="curve" smooth="yes"/>
      <point x="496" y="319"/>
      <point x="471" y="355"/>
      <point x="338" y="388" type="curve" smooth="yes"/>
      <point x="303" y="397"/>
      <point x="271" y="406"/>
      <point x="242" y="418" type="curve"/>
      <point x="173" y="386"/>
      <point x="132" y="339"/>
      <point x="132" y="285" type="curve" smooth="yes"/>
      <point x="132" y="228"/>
      <point x="157" y="192"/>
      <point x="290" y="159" type="curve" smooth="yes"/>
      <point x="325" y="150"/>
      <point x="357" y="141"/>
      <point x="386" y="129" type="curve"/>
      <point x="455" y="161"/>
      <point x="496" y="208"/>
    </contour>
  </outline>
</glyph>
<glyph name="dieresis" format="1">
  <advance width="500"/>
  <unicode hex="00A8"/>
  <outline>
    <contour>
      <point x="402" y="658" type="curve" smooth="yes"/>
      <point x="402" y="628"/>
      <point x="377" y="603"/>
      <point x="347" y="603" type="curve" smooth="yes"/>
      <point x="317" y="603"/>
      <point x="292" y="628"/>
      <point x="292" y="658" type="curve" smooth="yes"/>
      <point x="292" y="688"/>
      <point x="317" y="714"/>
      <point x="347" y="714" type="curve" smooth="yes"/>
      <point x="377" y="714"/>
      <point x="402" y="688"/>
    </contour>
    <contour>
      <point x="208" y="658" type="curve" smooth="yes"/>
      <point x="208" y="628"/>
      <point x="183" y="603"/>
      <point x="154" y="603" type="curve" smooth="yes"/>
      <point x="123" y="603"/>
      <point x="98" y="628"/>
      <point x="98" y="658" type="curve" smooth="yes"/>
      <point x="98" y="688"/>
      <point x="123" y="714"/>
      <point x="154" y="714" type="curve" smooth="yes"/>
      <point x="183" y="714"/>
      <point x="208" y="688"/>
    </contour>
  </outline>
</glyph>
<glyph name="ordfeminine" format="1">
  <advance width="455"/>
  <unicode hex="00AA"/>
  <outline>
    <contour>
      <point x="380" y="282" type="line"/>
      <point x="312" y="282" type="line"/>
      <point x="312" y="326" type="line"/>
      <point x="283" y="297"/>
      <point x="242" y="273"/>
      <point x="185" y="273" type="curve" smooth="yes"/>
      <point x="118" y="273"/>
      <point x="47" y="307"/>
      <point x="47" y="409" type="curve" smooth="yes"/>
      <point x="47" y="505"/>
      <point x="125" y="545"/>
      <point x="211" y="545" type="curve" smooth="yes"/>
      <point x="252" y="545"/>
      <point x="287" y="536"/>
      <point x="312" y="524" type="curve"/>
      <point x="312" y="567" type="line" smooth="yes"/>
      <point x="312" y="624"/>
      <point x="284" y="654"/>
      <point x="225" y="654" type="curve" smooth="yes"/>
      <point x="182" y="654"/>
      <point x="145" y="643"/>
      <point x="110" y="622" type="curve"/>
      <point x="83" y="676" type="line"/>
      <point x="123" y="697"/>
      <point x="174" y="711"/>
      <point x="229" y="711" type="curve" smooth="yes"/>
      <point x="322" y="711"/>
      <point x="380" y="673"/>
      <point x="380" y="574" type="curve" smooth="yes"/>
    </contour>
    <contour>
      <point x="312" y="388" type="curve"/>
      <point x="312" y="468" type="line"/>
      <point x="286" y="481"/>
      <point x="256" y="490"/>
      <point x="208" y="490" type="curve" smooth="yes"/>
      <point x="150" y="490"/>
      <point x="114" y="462"/>
      <point x="114" y="413" type="curve" smooth="yes"/>
      <point x="114" y="355"/>
      <point x="147" y="329"/>
      <point x="195" y="329" type="curve" smooth="yes"/>
      <point x="248" y="329"/>
      <point x="287" y="355"/>
    </contour>
  </outline>
</glyph>
<glyph name="guillemotleft" format="1">
  <advance width="576"/>
  <unicode hex="00AB"/>
  <outline>
    <contour>
      <point x="531" y="0" type="line"/>
      <point x="446" y="0" type="line"/>
      <point x="243" y="262" type="line"/>
      <point x="446" y="525" type="line"/>
      <point x="531" y="525" type="line"/>
      <point x="328" y="263" type="line"/>
    </contour>
    <contour>
      <point x="318" y="0" type="line"/>
      <point x="233" y="0" type="line"/>
      <point x="30" y="262" type="line"/>
      <point x="233" y="525" type="line"/>
      <point x="318" y="525" type="line"/>
      <point x="115" y="263" type="line"/>
    </contour>
  </outline>
</glyph>
<glyph name="degree" format="1">
  <advance width="476"/>
  <unicode hex="00B0"/>
  <outline>
    <contour>
      <point x="425" y="520" type="curve" smooth="yes"/>
      <point x="425" y="410"/>
      <point x="347" y="327"/>
      <point x="238" y="327" type="curve" smooth="yes"/>
      <point x="130" y="327"/>
      <point x="51" y="410"/>
      <point x="51" y="520" type="curve" smooth="yes"/>
      <point x="51" y="627"/>
      <point x="130" y="711"/>
      <point x="238" y="711" type="curve" smooth="yes"/>
      <point x="347" y="711"/>
      <point x="425" y="627"/>
    </contour>
    <contour>
      <point x="359" y="520" type="curve" smooth="yes"/>
      <point x="359" y="594"/>
      <point x="311" y="649"/>
      <point x="238" y="649" type="curve" smooth="yes"/>
      <point x="166" y="649"/>
      <point x="117" y="594"/>
      <point x="117" y="520" type="curve" smooth="yes"/>
      <point x="117" y="442"/>
      <point x="166" y="389"/>
      <point x="238" y="389" type="curve" smooth="yes"/>
      <point x="311" y="389"/>
      <point x="359" y="442"/>
    </contour>
  </outline>
</glyph>
<glyph name="acute" format="1">
  <advance width="500"/>
  <unicode hex="00B4"/>
  <outline>
    <contour>
      <point x="384" y="755" type="line"/>
      <point x="233" y="595" type="line"/>
      <point x="174" y="595" type="line"/>
      <point x="277" y="755" type="line"/>
    </contour>
  </outline>
</glyph>
<glyph name="paragraph" format="1">
  <advance width="688"/>
  <unicode hex="00B6"/>
  <outline>
    <contour>
      <point x="595" y="-185" type="line"/>
      <point x="518" y="-185" type="line"/>
      <point x="518" y="632" type="line"/>
      <point x="427" y="632" type="line"/>
      <point x="427" y="-185" type="line"/>
      <point x="350" y="-185" type="line"/>
      <point x="350" y="261" type="line"/>
      <point x="274" y="261" type="line" smooth="yes"/>
      <point x="151" y="261"/>
      <point x="47" y="340"/>
      <point x="47" y="481" type="curve" smooth="yes"/>
      <point x="47" y="621"/>
      <point x="152" y="700"/>
      <point x="274" y="700" type="curve" smooth="yes"/>
      <point x="595" y="700" type="line"/>
    </contour>
  </outline>
</glyph>
<glyph name="periodcentered" format="1">
  <advance width="240"/>
  <unicode hex="00B7"/>
  <outline>
    <contour>
      <point x="184" y="367" type="curve" smooth="yes"/>
      <point x="184" y="332"/>
      <point x="154" y="303"/>
      <point x="120" y="303" type="curve" smooth="yes"/>
      <point x="85" y="303"/>
      <point x="56" y="332"/>
      <point x="56" y="367" type="curve" smooth="yes"/>
      <point x="56" y="402"/>
      <point x="85" y="433"/>
      <point x="120" y="433" type="curve" smooth="yes"/>
      <point x="154" y="433"/>
      <point x="184" y="402"/>
    </contour>
  </outline>
</glyph>
<glyph name="cedilla" format="1">
  <advance width="500"/>
  <unicode hex="00B8"/>
  <outline>
    <contour>
      <point x="373" y="-106" type="curve" smooth="yes"/>
      <point x="373" y="-171"/>
      <point x="318" y="-193"/>
      <point x="254" y="-193" type="curve" smooth="yes"/>
      <point x="213" y="-193"/>
      <point x="171" y="-180"/>
      <point x="136" y="-157" type="curve"/>
      <point x="155" y="-125" type="line"/>
      <point x="183" y="-143"/>
      <point x="214" y="-152"/>
      <point x="247" y="-152" type="curve" smooth="yes"/>
      <point x="299" y="-152"/>
      <point x="314" y="-132"/>
      <point x="314" y="-109" type="curve" smooth="yes"/>
      <point x="314" y="-89"/>
      <point x="303" y="-76"/>
      <point x="282" y="-76" type="curve" smooth="yes"/>
      <point x="263" y="-76"/>
      <point x="247" y="-82"/>
      <point x="234" y="-94" type="curve"/>
      <point x="198" y="-80" type="line"/>
      <point x="223" y="0" type="line"/>
      <point x="268" y="0" type="line"/>
      <point x="251" y="-51" type="line"/>
      <point x="265" y="-42"/>
      <point x="282" y="-37"/>
      <point x="306" y="-37" type="curve" smooth="yes"/>
      <point x="333" y="-37"/>
      <point x="373" y="-55"/>
    </contour>
  </outline>
</glyph>
<glyph name="ordmasculine" format="1">
  <advance width="480"/>
  <unicode hex="00BA"/>
  <outline>
    <contour>
      <point x="426" y="495" type="curve" smooth="yes"/>
      <point x="426" y="353"/>
      <point x="344" y="274"/>
      <point x="238" y="274" type="curve" smooth="yes"/>
      <point x="133" y="274"/>
      <point x="54" y="350"/>
      <point x="54" y="492" type="curve" smooth="yes"/>
      <point x="54" y="635"/>
      <point x="136" y="711"/>
      <point x="242" y="711" type="curve" smooth="yes"/>
      <point x="347" y="711"/>
      <point x="426" y="638"/>
    </contour>
    <contour>
      <point x="358" y="494" type="curve" smooth="yes"/>
      <point x="358" y="600"/>
      <point x="311" y="651"/>
      <point x="240" y="651" type="curve" smooth="yes"/>
      <point x="169" y="651"/>
      <point x="122" y="600"/>
      <point x="122" y="494" type="curve" smooth="yes"/>
      <point x="122" y="387"/>
      <point x="169" y="334"/>
      <point x="240" y="334" type="curve" smooth="yes"/>
      <point x="311" y="334"/>
      <point x="358" y="387"/>
    </contour>
  </outline>
</glyph>
<glyph name="guillemotright" format="1">
  <advance width="576"/>
  <unicode hex="00BB"/>
  <outline>
    <contour>
      <point x="546" y="263" type="line"/>
      <point x="343" y="0" type="line"/>
      <point x="258" y="0" type="line"/>
      <point x="461" y="262" type="line"/>
      <point x="258" y="525" type="line"/>
      <point x="343" y="525" type="line"/>
    </contour>
    <contour>
      <point x="333" y="263" type="line"/>
      <point x="130" y="0" type="line"/>
      <point x="45" y="0" type="line"/>
      <point x="248" y="262" type="line"/>
      <point x="45" y="525" type="line"/>
      <point x="130" y="525" type="line"/>
    </contour>
  </outline>
</glyph>
<glyph name="questiondown" format="1">
  <advance width="561"/>
  <unicode hex="00BF"/>
  <outline>
    <contour>
      <point x="368" y="650" type="curve" smooth="yes"/>
      <point x="368" y="617"/>
      <point x="340" y="587"/>
      <point x="307" y="587" type="curve" smooth="yes"/>
      <point x="275" y="587"/>
      <point x="246" y="617"/>
      <point x="246" y="650" type="curve" smooth="yes"/>
      <point x="246" y="683"/>
      <point x="275" y="711"/>
      <point x="307" y="711" type="curve" smooth="yes"/>
      <point x="340" y="711"/>
      <point x="368" y="683"/>
    </contour>
    <contour>
      <point x="517" y="82" type="line"/>
      <point x="464" y="30"/>
      <point x="384" y="-11"/>
      <point x="283" y="-11" type="curve" smooth="yes"/>
      <point x="156" y="-11"/>
      <point x="67" y="47"/>
      <point x="67" y="161" type="curve" smooth="yes"/>
      <point x="67" y="258"/>
      <point x="113" y="294"/>
      <point x="191" y="342" type="curve" smooth="yes"/>
      <point x="258" y="383"/>
      <point x="267" y="407"/>
      <point x="267" y="512" type="curve"/>
      <point x="344" y="512" type="line"/>
      <point x="344" y="378"/>
      <point x="331" y="348"/>
      <point x="226" y="283" type="curve" smooth="yes"/>
      <point x="174" y="251"/>
      <point x="145" y="224"/>
      <point x="145" y="167" type="curve" smooth="yes"/>
      <point x="145" y="103"/>
      <point x="202" y="60"/>
      <point x="286" y="60" type="curve" smooth="yes"/>
      <point x="360" y="60"/>
      <point x="415" y="89"/>
      <point x="467" y="137" type="curve"/>
    </contour>
  </outline>
</glyph>
<glyph name="Aring" format="1">
  <advance width="678"/>
  <unicode hex="00C5"/>
  <outline>
    <contour>
      <point x="625" y="0" type="line"/>
      <point x="543" y="0" type="line"/>
      <point x="483" y="178" type="line"/>
      <point x="194" y="178" type="line"/>
      <point x="133" y="0" type="line"/>
      <point x="53" y="0" type="line"/>
      <point x="283" y="658" type="line"/>
      <point x="245" y="678"/>
      <point x="221" y="717"/>
      <point x="221" y="763" type="curve" smooth="yes"/>
      <point x="221" y="828"/>
      <point x="270" y="879"/>
      <point x="338" y="879" type="curve" smooth="yes"/>
      <point x="406" y="879"/>
      <point x="455" y="828"/>
      <point x="455" y="763" type="curve" smooth="yes"/>
      <point x="455" y="718"/>
      <point x="431" y="679"/>
      <point x="394" y="659" type="curve"/>
    </contour>
    <contour>
      <point x="408" y="763" type="curve" smooth="yes"/>
      <point x="408" y="804"/>
      <point x="381" y="834"/>
      <point x="338" y="834" type="curve" smooth="yes"/>
      <point x="295" y="834"/>
      <point x="268" y="804"/>
      <point x="268" y="763" type="curve" smooth="yes"/>
      <point x="268" y="721"/>
      <point x="295" y="691"/>
      <point x="338" y="691" type="curve" smooth="yes"/>
      <point x="381" y="691"/>
      <point x="408" y="721"/>
    </contour>
    <contour>
      <point x="459" y="249" type="line"/>
      <point x="382" y="479" type="line" smooth="yes"/>
      <point x="367" y="525"/>
      <point x="346" y="588"/>
      <point x="339" y="617" type="curve"/>
      <point x="332" y="589"/>
      <point x="312" y="526"/>
      <point x="295" y="477" type="curve" smooth="yes"/>
      <point x="218" y="249" type="line"/>
    </contour>
  </outline>
</glyph>
<glyph name="AE" format="1">
  <advance width="998"/>
  <unicode hex="00C6"/>
  <outline>
    <contour>
      <point x="941" y="0" type="line"/>
      <point x="503" y="0" type="line"/>
      <point x="503" y="178" type="line"/>
      <point x="230" y="178" type="line"/>
      <point x="113" y="0" type="line"/>
      <point x="24" y="0" type="line"/>
      <point x="494" y="700" type="line"/>
      <point x="926" y="700" type="line"/>
      <point x="926" y="629" type="line"/>
      <point x="577" y="629" type="line"/>
      <point x="577" y="409" type="line"/>
      <point x="781" y="409" type="line"/>
      <point x="781" y="338" type="line"/>
      <point x="577" y="338" type="line"/>
      <point x="577" y="71" type="line"/>
      <point x="941" y="71" type="line"/>
    </contour>
    <contour>
      <point x="505" y="600" type="curve"/>
      <point x="492" y="578"/>
      <point x="461" y="531"/>
      <point x="440" y="499" type="curve" smooth="yes"/>
      <point x="276" y="249" type="line"/>
      <point x="503" y="249" type="line"/>
      <point x="503" y="471" type="line" smooth="yes"/>
      <point x="503" y="514"/>
      <point x="505" y="572"/>
    </contour>
  </outline>
</glyph>
<glyph name="Ccedilla" format="1">
  <advance width="628"/>
  <unicode hex="00C7"/>
  <outline>
    <contour>
      <point x="574" y="105" type="line"/>
      <point x="525" y="38"/>
      <point x="452" y="-8"/>
      <point x="354" y="-11" type="curve"/>
      <point x="341" y="-51" type="line"/>
      <point x="355" y="-42"/>
      <point x="372" y="-37"/>
      <point x="396" y="-37" type="curve" smooth="yes"/>
      <point x="423" y="-37"/>
      <point x="463" y="-55"/>
      <point x="463" y="-106" type="curve" smooth="yes"/>
      <point x="463" y="-171"/>
      <point x="408" y="-193"/>
      <point x="344" y="-193" type="curve" smooth="yes"/>
      <point x="303" y="-193"/>
      <point x="261" y="-180"/>
      <point x="226" y="-157" type="curve"/>
      <point x="245" y="-125" type="line"/>
      <point x="273" y="-143"/>
      <point x="304" y="-152"/>
      <point x="337" y="-152" type="curve" smooth="yes"/>
      <point x="389" y="-152"/>
      <point x="404" y="-132"/>
      <point x="404" y="-109" type="curve" smooth="yes"/>
      <point x="404" y="-89"/>
      <point x="393" y="-76"/>
      <point x="372" y="-76" type="curve" smooth="yes"/>
      <point x="353" y="-76"/>
      <point x="337" y="-82"/>
      <point x="324" y="-94" type="curve"/>
      <point x="288" y="-80" type="line"/>
      <point x="310" y="-9" type="line"/>
      <point x="159" y="11"/>
      <point x="62" y="158"/>
      <point x="62" y="349" type="curve" smooth="yes"/>
      <point x="62" y="557"/>
      <point x="179" y="711"/>
      <point x="348" y="711" type="curve" smooth="yes"/>
      <point x="444" y="711"/>
      <point x="516" y="675"/>
      <point x="571" y="599" type="curve"/>
      <point x="509" y="552" type="line"/>
      <point x="464" y="613"/>
      <point x="422" y="640"/>
      <point x="346" y="640" type="curve" smooth="yes"/>
      <point x="226" y="640"/>
      <point x="140" y="521"/>
      <point x="140" y="351" type="curve" smooth="yes"/>
      <point x="140" y="180"/>
      <point x="229" y="60"/>
      <point x="347" y="60" type="curve" smooth="yes"/>
      <point x="423" y="60"/>
      <point x="475" y="94"/>
      <point x="520" y="152" type="curve"/>
    </contour>
  </outline>
</glyph>
<glyph name="Eth" format="1">
  <advance width="682"/>
  <unicode hex="00D0"/>
  <outline>
    <contour>
      <point x="606" y="355" type="curve" smooth="yes"/>
      <point x="606" y="101"/>
      <point x="460" y="0"/>
      <point x="273" y="0" type="curve" smooth="yes"/>
      <point x="102" y="0" type="line"/>
      <point x="102" y="331" type="line"/>
      <point x="40" y="331" type="line"/>
      <point x="40" y="401" type="line"/>
      <point x="102" y="401" type="line"/>
      <point x="102" y="700" type="line"/>
      <point x="287" y="700" type="line" smooth="yes"/>
      <point x="471" y="700"/>
      <point x="606" y="595"/>
    </contour>
    <contour>
      <point x="528" y="352" type="curve" smooth="yes"/>
      <point x="528" y="531"/>
      <point x="442" y="629"/>
      <point x="281" y="629" type="curve" smooth="yes"/>
      <point x="178" y="629" type="line"/>
      <point x="178" y="401" type="line"/>
      <point x="320" y="401" type="line"/>
      <point x="320" y="331" type="line"/>
      <point x="178" y="331" type="line"/>
      <point x="178" y="71" type="line"/>
      <point x="283" y="71" type="line" smooth="yes"/>
      <point x="434" y="71"/>
      <point x="528" y="151"/>
    </contour>
  </outline>
</glyph>
<glyph name="Oslash" format="1">
  <advance width="705"/>
  <unicode hex="00D8"/>
  <outline>
    <contour>
      <point x="643" y="351" type="curve" smooth="yes"/>
      <point x="643" y="140"/>
      <point x="525" y="-11"/>
      <point x="351" y="-11" type="curve" smooth="yes"/>
      <point x="305" y="-11"/>
      <point x="263" y="-1"/>
      <point x="227" y="18" type="curve"/>
      <point x="196" y="-50" type="line"/>
      <point x="127" y="-50" type="line"/>
      <point x="175" y="54" type="line"/>
      <point x="103" y="118"/>
      <point x="62" y="222"/>
      <point x="62" y="349" type="curve" smooth="yes"/>
      <point x="62" y="560"/>
      <point x="179" y="711"/>
      <point x="353" y="711" type="curve" smooth="yes"/>
      <point x="393" y="711"/>
      <point x="430" y="703"/>
      <point x="464" y="688" type="curve"/>
      <point x="492" y="750" type="line"/>
      <point x="561" y="750" type="line"/>
      <point x="518" y="655" type="line"/>
      <point x="596" y="594"/>
      <point x="643" y="485"/>
    </contour>
    <contour>
      <point x="434" y="623" type="line"/>
      <point x="408" y="636"/>
      <point x="380" y="643"/>
      <point x="350" y="643" type="curve" smooth="yes"/>
      <point x="228" y="643"/>
      <point x="137" y="529"/>
      <point x="137" y="351" type="curve" smooth="yes"/>
      <point x="137" y="256"/>
      <point x="164" y="178"/>
      <point x="208" y="127" type="curve"/>
    </contour>
    <contour>
      <point x="568" y="349" type="curve" smooth="yes"/>
      <point x="568" y="452"/>
      <point x="536" y="534"/>
      <point x="486" y="585" type="curve"/>
      <point x="257" y="84" type="line"/>
      <point x="286" y="66"/>
      <point x="319" y="57"/>
      <point x="354" y="57" type="curve" smooth="yes"/>
      <point x="476" y="57"/>
      <point x="568" y="171"/>
    </contour>
  </outline>
</glyph>
<glyph name="Thorn" format="1">
  <advance width="618"/>
  <unicode hex="00DE"/>
  <outline>
    <contour>
      <point x="577" y="365" type="curve" smooth="yes"/>
      <point x="577" y="226"/>
      <point x="480" y="149"/>
      <point x="340" y="149" type="curve" smooth="yes"/>
      <point x="170" y="149" type="line"/>
      <point x="170" y="0" type="line"/>
      <point x="92" y="0" type="line"/>
      <point x="92" y="700" type="line"/>
      <point x="170" y="700" type="line"/>
      <point x="170" y="574" type="line"/>
      <point x="354" y="574" type="line" smooth="yes"/>
      <point x="481" y="574"/>
      <point x="577" y="507"/>
    </contour>
    <contour>
      <point x="499" y="362" type="curve" smooth="yes"/>
      <point x="499" y="452"/>
      <point x="447" y="503"/>
      <point x="351" y="503" type="curve" smooth="yes"/>
      <point x="170" y="503" type="line"/>
      <point x="170" y="220" type="line"/>
      <point x="341" y="220" type="line" smooth="yes"/>
      <point x="448" y="220"/>
      <point x="499" y="269"/>
    </contour>
  </outline>
</glyph>
<glyph name="germandbls" format="1">
  <advance width="572"/>
  <unicode hex="00DF"/>
  <outline>
    <contour>
      <point x="517" y="226" type="curve" smooth="yes"/>
      <point x="517" y="60"/>
      <point x="400" y="0"/>
      <point x="258" y="0" type="curve" smooth="yes"/>
      <point x="243" y="0" type="line"/>
      <point x="243" y="66" type="line"/>
      <point x="261" y="66" type="line" smooth="yes"/>
      <point x="376" y="66"/>
      <point x="442" y="112"/>
      <point x="442" y="219" type="curve" smooth="yes"/>
      <point x="442" y="323"/>
      <point x="357" y="365"/>
      <point x="263" y="365" type="curve" smooth="yes"/>
      <point x="243" y="365" type="line"/>
      <point x="243" y="430" type="line"/>
      <point x="266" y="430" type="line" smooth="yes"/>
      <point x="343" y="430"/>
      <point x="388" y="469"/>
      <point x="388" y="548" type="curve" smooth="yes"/>
      <point x="388" y="617"/>
      <point x="342" y="661"/>
      <point x="272" y="661" type="curve" smooth="yes"/>
      <point x="206" y="661"/>
      <point x="158" y="615"/>
      <point x="158" y="529" type="curve" smooth="yes"/>
      <point x="158" y="-151" type="line"/>
      <point x="83" y="-193" type="line"/>
      <point x="83" y="516" type="line" smooth="yes"/>
      <point x="83" y="652"/>
      <point x="159" y="726"/>
      <point x="274" y="726" type="curve" smooth="yes"/>
      <point x="389" y="726"/>
      <point x="463" y="649"/>
      <point x="463" y="549" type="curve" smooth="yes"/>
      <point x="463" y="467"/>
      <point x="419" y="425"/>
      <point x="372" y="404" type="curve"/>
      <point x="442" y="387"/>
      <point x="517" y="338"/>
    </contour>
  </outline>
</glyph>
<glyph name="ae" format="1">
  <advance width="838"/>
  <unicode hex="00E6"/>
  <outline>
    <contour>
      <point x="781" y="278" type="curve" smooth="yes"/>
      <point x="781" y="260"/>
      <point x="780" y="249"/>
      <point x="778" y="237" type="curve"/>
      <point x="442" y="237" type="line"/>
      <point x="449" y="125"/>
      <point x="495" y="54"/>
      <point x="581" y="54" type="curve" smooth="yes"/>
      <point x="642" y="54"/>
      <point x="671" y="72"/>
      <point x="719" y="104" type="curve"/>
      <point x="754" y="50" type="line"/>
      <point x="691" y="10"/>
      <point x="652" y="-11"/>
      <point x="573" y="-11" type="curve" smooth="yes"/>
      <point x="515" y="-11"/>
      <point x="452" y="14"/>
      <point x="411" y="80" type="curve"/>
      <point x="355" y="16"/>
      <point x="302" y="-11"/>
      <point x="213" y="-11" type="curve" smooth="yes"/>
      <point x="131" y="-11"/>
      <point x="52" y="30"/>
      <point x="52" y="157" type="curve" smooth="yes"/>
      <point x="52" y="275"/>
      <point x="142" y="325"/>
      <point x="246" y="325" type="curve" smooth="yes"/>
      <point x="299" y="325"/>
      <point x="339" y="312"/>
      <point x="370" y="295" type="curve"/>
      <point x="370" y="357" type="line" smooth="yes"/>
      <point x="370" y="435"/>
      <point x="340" y="473"/>
      <point x="263" y="473" type="curve" smooth="yes"/>
      <point x="208" y="473"/>
      <point x="170" y="458"/>
      <point x="127" y="433" type="curve"/>
      <point x="99" y="494" type="line"/>
      <point x="145" y="519"/>
      <point x="200" y="536"/>
      <point x="268" y="536" type="curve" smooth="yes"/>
      <point x="361" y="536"/>
      <point x="409" y="500"/>
      <point x="421" y="441" type="curve"/>
      <point x="452" y="501"/>
      <point x="505" y="536"/>
      <point x="577" y="536" type="curve" smooth="yes"/>
      <point x="714" y="536"/>
      <point x="781" y="428"/>
    </contour>
    <contour>
      <point x="711" y="298" type="line"/>
      <point x="705" y="400"/>
      <point x="668" y="471"/>
      <point x="576" y="471" type="curve" smooth="yes"/>
      <point x="498" y="471"/>
      <point x="451" y="415"/>
      <point x="442" y="298" type="curve"/>
    </contour>
    <contour>
      <point x="384" y="139" type="curve"/>
      <point x="375" y="167"/>
      <point x="370" y="199"/>
      <point x="368" y="236" type="curve"/>
      <point x="335" y="254"/>
      <point x="305" y="265"/>
      <point x="242" y="265" type="curve" smooth="yes"/>
      <point x="165" y="265"/>
      <point x="126" y="228"/>
      <point x="126" y="162" type="curve" smooth="yes"/>
      <point x="126" y="84"/>
      <point x="162" y="50"/>
      <point x="226" y="50" type="curve" smooth="yes"/>
      <point x="274" y="50"/>
      <point x="333" y="72"/>
    </contour>
  </outline>
</glyph>
<glyph name="ccedilla" format="1">
  <advance width="495"/>
  <unicode hex="00E7"/>
  <outline>
    <contour>
      <point x="447" y="474" type="curve"/>
      <point x="402" y="418" type="line"/>
      <point x="364" y="452"/>
      <point x="329" y="471"/>
      <point x="276" y="471" type="curve" smooth="yes"/>
      <point x="194" y="471"/>
      <point x="131" y="397"/>
      <point x="131" y="266" type="curve" smooth="yes"/>
      <point x="131" y="137"/>
      <point x="186" y="54"/>
      <point x="279" y="54" type="curve" smooth="yes"/>
      <point x="330" y="54"/>
      <point x="364" y="75"/>
      <point x="400" y="110" type="curve"/>
      <point x="445" y="62" type="line"/>
      <point x="401" y="17"/>
      <point x="351" y="-11"/>
      <point x="277" y="-11" type="curve"/>
      <point x="264" y="-51" type="line"/>
      <point x="278" y="-42"/>
      <point x="295" y="-37"/>
      <point x="319" y="-37" type="curve" smooth="yes"/>
      <point x="346" y="-37"/>
      <point x="386" y="-55"/>
      <point x="386" y="-106" type="curve" smooth="yes"/>
      <point x="386" y="-171"/>
      <point x="331" y="-193"/>
      <point x="267" y="-193" type="curve" smooth="yes"/>
      <point x="226" y="-193"/>
      <point x="184" y="-180"/>
      <point x="149" y="-157" type="curve"/>
      <point x="168" y="-125" type="line"/>
      <point x="196" y="-143"/>
      <point x="227" y="-152"/>
      <point x="260" y="-152" type="curve" smooth="yes"/>
      <point x="312" y="-152"/>
      <point x="327" y="-132"/>
      <point x="327" y="-109" type="curve" smooth="yes"/>
      <point x="327" y="-89"/>
      <point x="316" y="-76"/>
      <point x="295" y="-76" type="curve" smooth="yes"/>
      <point x="276" y="-76"/>
      <point x="260" y="-82"/>
      <point x="247" y="-94" type="curve"/>
      <point x="211" y="-80" type="line"/>
      <point x="234" y="-7" type="line"/>
      <point x="136" y="12"/>
      <point x="55" y="100"/>
      <point x="55" y="260" type="curve" smooth="yes"/>
      <point x="55" y="454"/>
      <point x="171" y="536"/>
      <point x="281" y="536" type="curve" smooth="yes"/>
      <point x="352" y="536"/>
      <point x="406" y="510"/>
    </contour>
  </outline>
</glyph>
<glyph name="eth" format="1">
  <advance width="566"/>
  <unicode hex="00F0"/>
  <outline>
    <contour>
      <point x="511" y="298" type="curve" smooth="yes"/>
      <point x="511" y="83"/>
      <point x="424" y="-11"/>
      <point x="281" y="-11" type="curve" smooth="yes"/>
      <point x="160" y="-11"/>
      <point x="55" y="75"/>
      <point x="55" y="235" type="curve" smooth="yes"/>
      <point x="55" y="396"/>
      <point x="157" y="482"/>
      <point x="265" y="482" type="curve" smooth="yes"/>
      <point x="356" y="482"/>
      <point x="407" y="447"/>
      <point x="443" y="393" type="curve"/>
      <point x="423" y="481"/>
      <point x="387" y="546"/>
      <point x="332" y="589" type="curve"/>
      <point x="276" y="526" type="line"/>
      <point x="225" y="569" type="line"/>
      <point x="273" y="623" type="line"/>
      <point x="246" y="634"/>
      <point x="216" y="642"/>
      <point x="183" y="645" type="curve"/>
      <point x="183" y="711" type="line"/>
      <point x="230" y="708"/>
      <point x="276" y="696"/>
      <point x="318" y="674" type="curve"/>
      <point x="352" y="711" type="line"/>
      <point x="403" y="668" type="line"/>
      <point x="374" y="636" type="line"/>
      <point x="456" y="569"/>
      <point x="511" y="456"/>
    </contour>
    <contour>
      <point x="436" y="237" type="curve" smooth="yes"/>
      <point x="436" y="363"/>
      <point x="369" y="417"/>
      <point x="276" y="417" type="curve" smooth="yes"/>
      <point x="187" y="417"/>
      <point x="131" y="353"/>
      <point x="131" y="237" type="curve" smooth="yes"/>
      <point x="131" y="113"/>
      <point x="197" y="54"/>
      <point x="283" y="54" type="curve" smooth="yes"/>
      <point x="369" y="54"/>
      <point x="436" y="113"/>
    </contour>
  </outline>
</glyph>
<glyph name="oslash" format="1">
  <advance width="566"/>
  <unicode hex="00F8"/>
  <outline>
    <contour>
      <point x="511" y="266" type="curve" smooth="yes"/>
      <point x="511" y="88"/>
      <point x="409" y="-11"/>
      <point x="281" y="-11" type="curve" smooth="yes"/>
      <point x="250" y="-11"/>
      <point x="221" y="-6"/>
      <point x="195" y="5" type="curve"/>
      <point x="169" y="-50" type="line"/>
      <point x="103" y="-50" type="line"/>
      <point x="144" y="36" type="line"/>
      <point x="89" y="80"/>
      <point x="55" y="157"/>
      <point x="55" y="262" type="curve" smooth="yes"/>
      <point x="55" y="440"/>
      <point x="157" y="536"/>
      <point x="285" y="536" type="curve" smooth="yes"/>
      <point x="317" y="536"/>
      <point x="347" y="530"/>
      <point x="374" y="519" type="curve"/>
      <point x="401" y="575" type="line"/>
      <point x="467" y="575" type="line"/>
      <point x="425" y="488" type="line"/>
      <point x="478" y="444"/>
      <point x="511" y="369"/>
    </contour>
    <contour>
      <point x="346" y="460" type="line"/>
      <point x="327" y="469"/>
      <point x="306" y="473"/>
      <point x="283" y="473" type="curve" smooth="yes"/>
      <point x="191" y="473"/>
      <point x="129" y="403"/>
      <point x="129" y="264" type="curve" smooth="yes"/>
      <point x="129" y="191"/>
      <point x="146" y="137"/>
      <point x="175" y="101" type="curve"/>
    </contour>
    <contour>
      <point x="438" y="264" type="curve" smooth="yes"/>
      <point x="438" y="334"/>
      <point x="422" y="387"/>
      <point x="394" y="422" type="curve"/>
      <point x="223" y="64" type="line"/>
      <point x="241" y="56"/>
      <point x="261" y="52"/>
      <point x="283" y="52" type="curve" smooth="yes"/>
      <point x="375" y="52"/>
      <point x="438" y="125"/>
    </contour>
  </outline>
</glyph>
<glyph name="Lslash" format="1">
  <advance width="585"/>
  <unicode hex="0141"/>
  <outline>
    <contour>
      <point x="526" y="0" type="line"/>
      <point x="102" y="0" type="line"/>
      <point x="102" y="238" type="line"/>
      <point x="40" y="184" type="line"/>
      <point x="40" y="273" type="line"/>
      <point x="102" y="327" type="line"/>
      <point x="102" y="700" type="line"/>
      <point x="180" y="700" type="line"/>
      <point x="180" y="388" type="line"/>
      <point x="341" y="525" type="line"/>
      <point x="341" y="436" type="line"/>
      <point x="180" y="299" type="line"/>
      <point x="180" y="71" type="line"/>
      <point x="526" y="71" type="line"/>
    </contour>
  </outline>
</glyph>
<glyph name="lslash" format="1">
  <advance width="261"/>
  <unicode hex="0142"/>
  <outline>
    <contour>
      <point x="217" y="359" type="line"/>
      <point x="168" y="316" type="line"/>
      <point x="168" y="0" type="line"/>
      <point x="93" y="0" type="line"/>
      <point x="93" y="256" type="line"/>
      <point x="44" y="213" type="line"/>
      <point x="44" y="304" type="line"/>
      <point x="93" y="347" type="line"/>
      <point x="93" y="687" type="line"/>
      <point x="168" y="729" type="line"/>
      <point x="168" y="406" type="line"/>
      <point x="217" y="450" type="line"/>
    </contour>
  </outline>
</glyph>
<glyph name="OE" format="1">
  <advance width="1043"/>
  <unicode hex="0152"/>
  <outline>
    <contour>
      <point x="986" y="0" type="line"/>
      <point x="559" y="0" type="line"/>
      <point x="559" y="116" type="line"/>
      <point x="516" y="43"/>
      <point x="462" y="-11"/>
      <point x="349" y="-11" type="curve" smooth="yes"/>
      <point x="176" y="-11"/>
      <point x="62" y="139"/>
      <point x="62" y="350" type="curve" smooth="yes"/>
      <point x="62" y="561"/>
      <point x="176" y="711"/>
      <point x="349" y="711" type="curve" smooth="yes"/>
      <point x="453" y="711"/>
      <point x="520" y="655"/>
      <point x="559" y="587" type="curve"/>
      <point x="559" y="700" type="line"/>
      <point x="971" y="700" type="line"/>
      <point x="971" y="629" type="line"/>
      <point x="629" y="629" type="line"/>
      <point x="629" y="409" type="line"/>
      <point x="826" y="409" type="line"/>
      <point x="826" y="338" type="line"/>
      <point x="629" y="338" type="line"/>
      <point x="629" y="71" type="line"/>
      <point x="986" y="71" type="line"/>
    </contour>
    <contour>
      <point x="559" y="349" type="curve" smooth="yes"/>
      <point x="559" y="525"/>
      <point x="469" y="640"/>
      <point x="347" y="640" type="curve" smooth="yes"/>
      <point x="226" y="640"/>
      <point x="140" y="527"/>
      <point x="140" y="351" type="curve" smooth="yes"/>
      <point x="140" y="175"/>
      <point x="229" y="60"/>
      <point x="351" y="60" type="curve" smooth="yes"/>
      <point x="472" y="60"/>
      <point x="559" y="173"/>
    </contour>
  </outline>
</glyph>
<glyph name="oe" format="1">
  <advance width="896"/>
  <unicode hex="0153"/>
  <outline>
    <contour>
      <point x="839" y="278" type="curve" smooth="yes"/>
      <point x="839" y="260"/>
      <point x="838" y="249"/>
      <point x="836" y="237" type="curve"/>
      <point x="496" y="237" type="line"/>
      <point x="503" y="125"/>
      <point x="555" y="54"/>
      <point x="637" y="54" type="curve" smooth="yes"/>
      <point x="695" y="54"/>
      <point x="729" y="72"/>
      <point x="777" y="104" type="curve"/>
      <point x="812" y="50" type="line"/>
      <point x="749" y="10"/>
      <point x="704" y="-11"/>
      <point x="629" y="-11" type="curve" smooth="yes"/>
      <point x="551" y="-11"/>
      <point x="484" y="46"/>
      <point x="458" y="114" type="curve"/>
      <point x="430" y="45"/>
      <point x="370" y="-11"/>
      <point x="276" y="-11" type="curve" smooth="yes"/>
      <point x="155" y="-11"/>
      <point x="55" y="84"/>
      <point x="55" y="262" type="curve" smooth="yes"/>
      <point x="55" y="440"/>
      <point x="158" y="536"/>
      <point x="280" y="536" type="curve" smooth="yes"/>
      <point x="371" y="536"/>
      <point x="434" y="479"/>
      <point x="460" y="412" type="curve"/>
      <point x="488" y="480"/>
      <point x="548" y="536"/>
      <point x="633" y="536" type="curve" smooth="yes"/>
      <point x="763" y="536"/>
      <point x="839" y="428"/>
    </contour>
    <contour>
      <point x="769" y="298" type="line"/>
      <point x="763" y="400"/>
      <point x="719" y="471"/>
      <point x="632" y="471" type="curve" smooth="yes"/>
      <point x="558" y="471"/>
      <point x="505" y="415"/>
      <point x="496" y="298" type="curve"/>
    </contour>
    <contour>
      <point x="426" y="264" type="curve" smooth="yes"/>
      <point x="426" y="402"/>
      <point x="364" y="471"/>
      <point x="278" y="471" type="curve" smooth="yes"/>
      <point x="192" y="471"/>
      <point x="131" y="402"/>
      <point x="131" y="264" type="curve" smooth="yes"/>
      <point x="131" y="126"/>
      <point x="192" y="54"/>
      <point x="278" y="54" type="curve" smooth="yes"/>
      <point x="364" y="54"/>
      <point x="426" y="126"/>
    </contour>
  </outline>
</glyph>
<glyph name="florin" format="1">
  <advance width="393"/>
  <unicode hex="0192"/>
  <outline>
    <contour>
      <point x="333" y="631" type="line"/>
      <point x="316" y="639"/>
      <point x="289" y="643"/>
      <point x="265" y="643" type="curve" smooth="yes"/>
      <point x="228" y="643"/>
      <point x="204" y="629"/>
      <point x="204" y="585" type="curve" smooth="yes"/>
      <point x="204" y="525" type="line"/>
      <point x="311" y="525" type="line"/>
      <point x="311" y="462" type="line"/>
      <point x="204" y="462" type="line"/>
      <point x="204" y="-151" type="line"/>
      <point x="129" y="-193" type="line"/>
      <point x="129" y="462" type="line"/>
      <point x="57" y="462" type="line"/>
      <point x="57" y="525" type="line"/>
      <point x="129" y="525" type="line"/>
      <point x="129" y="582" type="line" smooth="yes"/>
      <point x="129" y="676"/>
      <point x="187" y="711"/>
      <point x="260" y="711" type="curve" smooth="yes"/>
      <point x="290" y="711"/>
      <point x="315" y="708"/>
      <point x="333" y="702" type="curve"/>
    </contour>
  </outline>
</glyph>
<glyph name="circumflex" format="1">
  <advance width="500"/>
  <unicode hex="02C6"/>
  <outline>
    <contour>
      <point x="415" y="595" type="line"/>
      <point x="350" y="595" type="line"/>
      <point x="249" y="698" type="line"/>
      <point x="148" y="595" type="line"/>
      <point x="85" y="595" type="line"/>
      <point x="208" y="755" type="line"/>
      <point x="292" y="755" type="line"/>
    </contour>
  </outline>
</glyph>
<glyph name="caron" format="1">
  <advance width="500"/>
  <unicode hex="02C7"/>
  <outline>
    <contour>
      <point x="415" y="755" type="line"/>
      <point x="292" y="595" type="line"/>
      <point x="208" y="595" type="line"/>
      <point x="85" y="755" type="line"/>
      <point x="150" y="755" type="line"/>
      <point x="251" y="652" type="line"/>
      <point x="352" y="755" type="line"/>
    </contour>
  </outline>
</glyph>
<glyph name="breve" format="1">
  <advance width="500"/>
  <unicode hex="02D8"/>
  <outline>
    <contour>
      <point x="419" y="755" type="line"/>
      <point x="414" y="655"/>
      <point x="353" y="595"/>
      <point x="249" y="595" type="curve" smooth="yes"/>
      <point x="152" y="595"/>
      <point x="86" y="655"/>
      <point x="81" y="755" type="curve"/>
      <point x="143" y="755" type="line"/>
      <point x="148" y="685"/>
      <point x="184" y="651"/>
      <point x="251" y="651" type="curve" smooth="yes"/>
      <point x="312" y="651"/>
      <point x="352" y="683"/>
      <point x="358" y="755" type="curve"/>
    </contour>
  </outline>
</glyph>
<glyph name="dotaccent" format="1">
  <advance width="500"/>
  <unicode hex="02D9"/>
  <outline>
    <contour>
      <point x="305" y="658" type="curve" smooth="yes"/>
      <point x="305" y="628"/>
      <point x="280" y="603"/>
      <point x="250" y="603" type="curve" smooth="yes"/>
      <point x="220" y="603"/>
      <point x="195" y="628"/>
      <point x="195" y="658" type="curve" smooth="yes"/>
      <point x="195" y="688"/>
      <point x="220" y="714"/>
      <point x="250" y="714" type="curve" smooth="yes"/>
      <point x="280" y="714"/>
      <point x="305" y="688"/>
    </contour>
  </outline>
</glyph>
<glyph name="ring" format="1">
  <advance width="500"/>
  <unicode hex="02DA"/>
  <outline>
    <contour>
      <point x="367" y="716" type="curve" smooth="yes"/>
      <point x="367" y="651"/>
      <point x="318" y="599"/>
      <point x="250" y="599" type="curve" smooth="yes"/>
      <point x="182" y="599"/>
      <point x="133" y="651"/>
      <point x="133" y="716" type="curve" smooth="yes"/>
      <point x="133" y="781"/>
      <point x="182" y="832"/>
      <point x="250" y="832" type="curve" smooth="yes"/>
      <point x="318" y="832"/>
      <point x="367" y="781"/>
    </contour>
    <contour>
      <point x="320" y="716" type="curve" smooth="yes"/>
      <point x="320" y="757"/>
      <point x="293" y="787"/>
      <point x="250" y="787" type="curve" smooth="yes"/>
      <point x="207" y="787"/>
      <point x="180" y="757"/>
      <point x="180" y="716" type="curve" smooth="yes"/>
      <point x="180" y="674"/>
      <point x="207" y="644"/>
      <point x="250" y="644" type="curve" smooth="yes"/>
      <point x="293" y="644"/>
      <point x="320" y="674"/>
    </contour>
  </outline>
</glyph>
<glyph name="ogonek" format="1">
  <advance width="500"/>
  <unicode hex="02DB"/>
  <outline>
    <contour>
      <point x="369" y="-154" type="line"/>
      <point x="329" y="-176"/>
      <point x="283" y="-193"/>
      <point x="244" y="-193" type="curve" smooth="yes"/>
      <point x="186" y="-193"/>
      <point x="153" y="-161"/>
      <point x="153" y="-110" type="curve" smooth="yes"/>
      <point x="153" y="-66"/>
      <point x="189" y="-31"/>
      <point x="237" y="0" type="curve"/>
      <point x="289" y="0" type="line"/>
      <point x="238" y="-35"/>
      <point x="215" y="-63"/>
      <point x="215" y="-101" type="curve" smooth="yes"/>
      <point x="215" y="-128"/>
      <point x="232" y="-147"/>
      <point x="261" y="-147" type="curve" smooth="yes"/>
      <point x="293" y="-147"/>
      <point x="319" y="-140"/>
      <point x="354" y="-125" type="curve"/>
    </contour>
  </outline>
</glyph>
<glyph name="tilde" format="1">
  <advance width="500"/>
  <unicode hex="02DC"/>
  <outline>
    <contour>
      <point x="428" y="728" type="line"/>
      <point x="428" y="639"/>
      <point x="380" y="598"/>
      <point x="326" y="598" type="curve" smooth="yes"/>
      <point x="300" y="598"/>
      <point x="277" y="605"/>
      <point x="252" y="624" type="curve" smooth="yes"/>
      <point x="203" y="661"/>
      <point x="194" y="668"/>
      <point x="173" y="668" type="curve" smooth="yes"/>
      <point x="154" y="668"/>
      <point x="140" y="653"/>
      <point x="134" y="601" type="curve"/>
      <point x="72" y="601" type="line"/>
      <point x="72" y="690"/>
      <point x="120" y="731"/>
      <point x="174" y="731" type="curve" smooth="yes"/>
      <point x="200" y="731"/>
      <point x="223" y="724"/>
      <point x="248" y="705" type="curve" smooth="yes"/>
      <point x="296" y="668"/>
      <point x="308" y="661"/>
      <point x="327" y="661" type="curve" smooth="yes"/>
      <point x="348" y="661"/>
      <point x="360" y="681"/>
      <point x="366" y="728" type="curve"/>
    </contour>
  </outline>
</glyph>
<glyph name="hungarumlaut" format="1">
  <advance width="500"/>
  <unicode hex="02DD"/>
  <outline>
    <contour>
      <point x="444" y="755" type="line"/>
      <point x="307" y="595" type="line"/>
      <point x="251" y="595" type="line"/>
      <point x="344" y="755" type="line"/>
    </contour>
    <contour>
      <point x="267" y="755" type="line"/>
      <point x="130" y="595" type="line"/>
      <point x="74" y="595" type="line"/>
      <point x="167" y="755" type="line"/>
    </contour>
  </outline>
</glyph>
<glyph name="endash" format="1">
  <advance width="422"/>
  <unicode hex="2013"/>
  <outline>
    <contour>
      <point x="371" y="330" type="line"/>
      <point x="51" y="330" type="line"/>
      <point x="51" y="401" type="line"/>
      <point x="371" y="401" type="line"/>
    </contour>
  </outline>
</glyph>
<glyph name="emdash" format="1">
  <advance width="580"/>
  <unicode hex="2014"/>
  <outline>
    <contour>
      <point x="529" y="330" type="line"/>
      <point x="51" y="330" type="line"/>
      <point x="51" y="401" type="line"/>
      <point x="529" y="401" type="line"/>
    </contour>
  </outline>
</glyph>
<glyph name="quoteleft" format="1">
  <advance width="252"/>
  <unicode hex="2018"/>
  <unicode hex="02BB"/>
  <outline>
    <contour>
      <point x="177" y="700" type="line"/>
      <point x="162" y="477" type="line"/>
      <point x="60" y="477" type="line"/>
      <point x="125" y="700" type="line"/>
    </contour>
  </outline>
</glyph>
<glyph name="quoteright" format="1">
  <advance width="252"/>
  <unicode hex="2019"/>
  <unicode hex="02BC"/>
  <outline>
    <contour>
      <point x="192" y="700" type="line"/>
      <point x="127" y="477" type="line"/>
      <point x="75" y="477" type="line"/>
      <point x="90" y="700" type="line"/>
    </contour>
  </outline>
</glyph>
<glyph name="quotesinglbase" format="1">
  <advance width="252"/>
  <unicode hex="201A"/>
  <outline>
    <contour>
      <point x="192" y="115" type="line"/>
      <point x="127" y="-108" type="line"/>
      <point x="75" y="-108" type="line"/>
      <point x="90" y="115" type="line"/>
    </contour>
  </outline>
</glyph>
<glyph name="quotedblleft" format="1">
  <advance width="469"/>
  <unicode hex="201C"/>
  <outline>
    <contour>
      <point x="394" y="700" type="line"/>
      <point x="379" y="477" type="line"/>
      <point x="277" y="477" type="line"/>
      <point x="342" y="700" type="line"/>
    </contour>
    <contour>
      <point x="177" y="700" type="line"/>
      <point x="162" y="477" type="line"/>
      <point x="60" y="477" type="line"/>
      <point x="125" y="700" type="line"/>
    </contour>
  </outline>
</glyph>
<glyph name="quotedblright" format="1">
  <advance width="469"/>
  <unicode hex="201D"/>
  <outline>
    <contour>
      <point x="409" y="700" type="line"/>
      <point x="344" y="477" type="line"/>
      <point x="292" y="477" type="line"/>
      <point x="307" y="700" type="line"/>
    </contour>
    <contour>
      <point x="192" y="700" type="line"/>
      <point x="127" y="477" type="line"/>
      <point x="75" y="477" type="line"/>
      <point x="90" y="700" type="line"/>
    </contour>
  </outline>
</glyph>
<glyph name="quotedblbase" format="1">
  <advance width="469"/>
  <unicode hex="201E"/>
  <outline>
    <contour>
      <point x="409" y="115" type="line"/>
      <point x="344" y="-108" type="line"/>
      <point x="292" y="-108" type="line"/>
      <point x="307" y="115" type="line"/>
    </contour>
    <contour>
      <point x="192" y="115" type="line"/>
      <point x="127" y="-108" type="line"/>
      <point x="75" y="-108" type="line"/>
      <point x="90" y="115" type="line"/>
    </contour>
  </outline>
</glyph>
<glyph name="dagger" format="1">
  <advance width="573"/>
  <unicode hex="2020"/>
  <outline>
    <contour>
      <point x="518" y="398" type="line"/>
      <point x="321" y="398" type="line"/>
      <point x="321" y="-100" type="line"/>
      <point x="252" y="-100" type="line"/>
      <point x="252" y="398" type="line"/>
      <point x="55" y="398" type="line"/>
      <point x="55" y="464" type="line"/>
      <point x="252" y="464" type="line"/>
      <point x="252" y="700" type="line"/>
      <point x="321" y="700" type="line"/>
      <point x="321" y="464" type="line"/>
      <point x="518" y="464" type="line"/>
    </contour>
  </outline>
</glyph>
<glyph name="daggerdbl" format="1">
  <advance width="573"/>
  <unicode hex="2021"/>
  <outline>
    <contour>
      <point x="518" y="136" type="line"/>
      <point x="321" y="136" type="line"/>
      <point x="321" y="-100" type="line"/>
      <point x="252" y="-100" type="line"/>
      <point x="252" y="136" type="line"/>
      <point x="55" y="136" type="line"/>
      <point x="55" y="201" type="line"/>
      <point x="252" y="201" type="line"/>
      <point x="252" y="399" type="line"/>
      <point x="55" y="399" type="line"/>
      <point x="55" y="464" type="line"/>
      <point x="252" y="464" type="line"/>
      <point x="252" y="700" type="line"/>
      <point x="321" y="700" type="line"/>
      <point x="321" y="464" type="line"/>
      <point x="518" y="464" type="line"/>
      <point x="518" y="399" type="line"/>
      <point x="321" y="399" type="line"/>
      <point x="321" y="201" type="line"/>
      <point x="518" y="201" type="line"/>
    </contour>
  </outline>
</glyph>
<glyph name="ellipsis" format="1">
  <advance width="720"/>
  <unicode hex="2026"/>
  <outline>
    <contour>
      <point x="664" y="53" type="curve" smooth="yes"/>
      <point x="664" y="18"/>
      <point x="634" y="-11"/>
      <point x="600" y="-11" type="curve" smooth="yes"/>
      <point x="565" y="-11"/>
      <point x="536" y="18"/>
      <point x="536" y="53" type="curve" smooth="yes"/>
      <point x="536" y="88"/>
      <point x="565" y="119"/>
      <point x="600" y="119" type="curve" smooth="yes"/>
      <point x="634" y="119"/>
      <point x="664" y="88"/>
    </contour>
    <contour>
      <point x="424" y="53" type="curve" smooth="yes"/>
      <point x="424" y="18"/>
      <point x="394" y="-11"/>
      <point x="360" y="-11" type="curve" smooth="yes"/>
      <point x="325" y="-11"/>
      <point x="296" y="18"/>
      <point x="296" y="53" type="curve" smooth="yes"/>
      <point x="296" y="88"/>
      <point x="325" y="119"/>
      <point x="360" y="119" type="curve" smooth="yes"/>
      <point x="394" y="119"/>
      <point x="424" y="88"/>
    </contour>
    <contour>
      <point x="184" y="53" type="curve" smooth="yes"/>
      <point x="184" y="18"/>
      <point x="154" y="-11"/>
      <point x="120" y="-11" type="curve" smooth="yes"/>
      <point x="85" y="-11"/>
      <point x="56" y="18"/>
      <point x="56" y="53" type="curve" smooth="yes"/>
      <point x="56" y="88"/>
      <point x="85" y="119"/>
      <point x="120" y="119" type="curve" smooth="yes"/>
      <point x="154" y="119"/>
      <point x="184" y="88"/>
    </contour>
  </outline>
</glyph>
<glyph name="perthousand" format="1">
  <advance width="1345"/>
  <unicode hex="2030"/>
  <outline>
    <contour>
      <point x="385" y="494" type="curve" smooth="yes"/>
      <point x="385" y="366"/>
      <point x="319" y="276"/>
      <point x="221" y="276" type="curve" smooth="yes"/>
      <point x="123" y="276"/>
      <point x="60" y="364"/>
      <point x="60" y="492" type="curve" smooth="yes"/>
      <point x="60" y="622"/>
      <point x="123" y="711"/>
      <point x="223" y="711" type="curve" smooth="yes"/>
      <point x="325" y="711"/>
      <point x="385" y="622"/>
    </contour>
    <contour>
      <point x="735" y="700" type="line"/>
      <point x="300" y="0" type="line"/>
      <point x="227" y="0" type="line"/>
      <point x="662" y="700" type="line"/>
    </contour>
    <contour>
      <point x="1300" y="207" type="curve" smooth="yes"/>
      <point x="1300" y="79"/>
      <point x="1234" y="-11"/>
      <point x="1136" y="-11" type="curve" smooth="yes"/>
      <point x="1038" y="-11"/>
      <point x="975" y="77"/>
      <point x="975" y="205" type="curve" smooth="yes"/>
      <point x="975" y="335"/>
      <point x="1038" y="424"/>
      <point x="1138" y="424" type="curve" smooth="yes"/>
      <point x="1240" y="424"/>
      <point x="1300" y="335"/>
    </contour>
    <contour>
      <point x="903" y="207" type="curve" smooth="yes"/>
      <point x="903" y="79"/>
      <point x="837" y="-11"/>
      <point x="739" y="-11" type="curve" smooth="yes"/>
      <point x="641" y="-11"/>
      <point x="578" y="77"/>
      <point x="578" y="205" type="curve" smooth="yes"/>
      <point x="578" y="335"/>
      <point x="641" y="424"/>
      <point x="741" y="424" type="curve" smooth="yes"/>
      <point x="843" y="424"/>
      <point x="903" y="335"/>
    </contour>
    <contour>
      <point x="316" y="492" type="curve" smooth="yes"/>
      <point x="316" y="584"/>
      <point x="280" y="651"/>
      <point x="222" y="651" type="curve" smooth="yes"/>
      <point x="164" y="651"/>
      <point x="129" y="586"/>
      <point x="129" y="494" type="curve" smooth="yes"/>
      <point x="129" y="402"/>
      <point x="165" y="336"/>
      <point x="223" y="336" type="curve" smooth="yes"/>
      <point x="281" y="336"/>
      <point x="316" y="408"/>
    </contour>
    <contour>
      <point x="1231" y="205" type="curve" smooth="yes"/>
      <point x="1231" y="297"/>
      <point x="1195" y="364"/>
      <point x="1137" y="364" type="curve" smooth="yes"/>
      <point x="1079" y="364"/>
      <point x="1044" y="299"/>
      <point x="1044" y="207" type="curve" smooth="yes"/>
      <point x="1044" y="115"/>
      <point x="1080" y="49"/>
      <point x="1138" y="49" type="curve" smooth="yes"/>
      <point x="1196" y="49"/>
      <point x="1231" y="121"/>
    </contour>
    <contour>
      <point x="834" y="205" type="curve" smooth="yes"/>
      <point x="834" y="297"/>
      <point x="798" y="364"/>
      <point x="740" y="364" type="curve" smooth="yes"/>
      <point x="682" y="364"/>
      <point x="647" y="299"/>
      <point x="647" y="207" type="curve" smooth="yes"/>
      <point x="647" y="115"/>
      <point x="683" y="49"/>
      <point x="741" y="49" type="curve" smooth="yes"/>
      <point x="799" y="49"/>
      <point x="834" y="121"/>
    </contour>
  </outline>
</glyph>
<glyph name="guilsinglleft" format="1">
  <advance width="363"/>
  <unicode hex="2039"/>
  <outline>
    <contour>
      <point x="318" y="0" type="line"/>
      <point x="233" y="0" type="line"/>
      <point x="30" y="262" type="line"/>
      <point x="233" y="525" type="line"/>
      <point x="318" y="525" type="line"/>
      <point x="115" y="263" type="line"/>
    </contour>
  </outline>
</glyph>
<glyph name="guilsinglright" format="1">
  <advance width="363"/>
  <unicode hex="203A"/>
  <outline>
    <contour>
      <point x="333" y="263" type="line"/>
      <point x="130" y="0" type="line"/>
      <point x="45" y="0" type="line"/>
      <point x="248" y="262" type="line"/>
      <point x="45" y="525" type="line"/>
      <point x="130" y="525" type="line"/>
    </contour>
  </outline>
</glyph>
<glyph name="fraction" format="1">
  <advance width="457"/>
  <unicode hex="2044"/>
  <outline>
    <contour>
      <point x="508" y="700" type="line"/>
      <point x="31" y="0" type="line"/>
      <point x="-51" y="0" type="line"/>
      <point x="426" y="700" type="line"/>
    </contour>
  </outline>
</glyph>
<glyph name="Euro" format="1">
  <advance width="595"/>
  <unicode hex="20AC"/>
  <outline>
    <contour>
      <point x="143" y="249" type="line"/>
      <point x="164" y="128"/>
      <point x="226" y="58"/>
      <point x="329" y="58" type="curve" smooth="yes"/>
      <point x="402" y="58"/>
      <point x="445" y="90"/>
      <point x="491" y="149" type="curve"/>
      <point x="541" y="105" type="line"/>
      <point x="488" y="35"/>
      <point x="429" y="-11"/>
      <point x="327" y="-11" type="curve" smooth="yes"/>
      <point x="162" y="-11"/>
      <point x="59" y="120"/>
      <point x="59" y="349" type="curve" smooth="yes"/>
      <point x="59" y="582"/>
      <point x="165" y="711"/>
      <point x="330" y="711" type="curve" smooth="yes"/>
      <point x="428" y="711"/>
      <point x="485" y="677"/>
      <point x="538" y="599" type="curve"/>
      <point x="480" y="554" type="line"/>
      <point x="437" y="616"/>
      <point x="401" y="642"/>
      <point x="328" y="642" type="curve" smooth="yes"/>
      <point x="228" y="642"/>
      <point x="166" y="575"/>
      <point x="144" y="460" type="curve"/>
      <point x="413" y="460" type="line"/>
      <point x="413" y="397" type="line"/>
      <point x="136" y="397" type="line"/>
      <point x="135" y="382"/>
      <point x="135" y="367"/>
      <point x="135" y="351" type="curve" smooth="yes"/>
      <point x="135" y="338"/>
      <point x="135" y="325"/>
      <point x="136" y="312" type="curve"/>
      <point x="413" y="312" type="line"/>
      <point x="413" y="249" type="line"/>
    </contour>
  </outline>
</glyph>
<glyph name="trademark" format="1">
  <advance width="762"/>
  <unicode hex="2122"/>
  <outline>
    <contour>
      <point x="302" y="658" type="line"/>
      <point x="186" y="658" type="line"/>
      <point x="186" y="301" type="line"/>
      <point x="138" y="301" type="line"/>
      <point x="138" y="658" type="line"/>
      <point x="22" y="658" type="line"/>
      <point x="22" y="700" type="line"/>
      <point x="302" y="700" type="line"/>
    </contour>
    <contour>
      <point x="717" y="301" type="line"/>
      <point x="672" y="301" type="line"/>
      <point x="672" y="566" type="line"/>
      <point x="672" y="609" type="line"/>
      <point x="668" y="593"/>
      <point x="657" y="564"/>
      <point x="648" y="542" type="curve" smooth="yes"/>
      <point x="543" y="290" type="line"/>
      <point x="441" y="542" type="line" smooth="yes"/>
      <point x="432" y="563"/>
      <point x="421" y="593"/>
      <point x="417" y="609" type="curve"/>
      <point x="417" y="566" type="line"/>
      <point x="417" y="301" type="line"/>
      <point x="372" y="301" type="line"/>
      <point x="372" y="700" type="line"/>
      <point x="424" y="700" type="line"/>
      <point x="518" y="461" type="line" smooth="yes"/>
      <point x="528" y="437"/>
      <point x="540" y="405"/>
      <point x="545" y="388" type="curve"/>
      <point x="550" y="405"/>
      <point x="562" y="437"/>
      <point x="571" y="461" type="curve" smooth="yes"/>
      <point x="666" y="700" type="line"/>
      <point x="717" y="700" type="line"/>
    </contour>
  </outline>
</glyph>
<glyph name="arrowleft" format="1">
  <advance width="630"/>
  <unicode hex="2190"/>
  <outline>
    <contour>
      <point x="575" y="310" type="line"/>
      <point x="180" y="310" type="line"/>
      <point x="210" y="235" type="line" smooth="yes"/>
      <point x="212" y="231"/>
      <point x="210" y="228"/>
      <point x="207" y="226" type="curve" smooth="yes"/>
      <point x="204" y="224"/>
      <point x="200" y="225"/>
      <point x="196" y="228" type="curve" smooth="yes"/>
      <point x="20" y="345" type="line"/>
      <point x="196" y="462" type="line" smooth="yes"/>
      <point x="200" y="465"/>
      <point x="204" y="466"/>
      <point x="207" y="464" type="curve" smooth="yes"/>
      <point x="210" y="462"/>
      <point x="212" y="459"/>
      <point x="210" y="455" type="curve" smooth="yes"/>
      <point x="180" y="380" type="line"/>
      <point x="575" y="380" type="line"/>
    </contour>
  </outline>
</glyph>
<glyph name="arrowup" format="1">
  <advance width="366"/>
  <unicode hex="2191"/>
  <outline>
    <contour>
      <point x="302" y="528" type="curve" smooth="yes"/>
      <point x="300" y="525"/>
      <point x="297" y="523"/>
      <point x="293" y="525" type="curve" smooth="yes"/>
      <point x="218" y="555" type="line"/>
      <point x="218" y="0" type="line"/>
      <point x="148" y="0" type="line"/>
      <point x="148" y="555" type="line"/>
      <point x="73" y="525" type="line" smooth="yes"/>
      <point x="69" y="523"/>
      <point x="66" y="525"/>
      <point x="64" y="528" type="curve" smooth="yes"/>
      <point x="62" y="531"/>
      <point x="63" y="535"/>
      <point x="66" y="539" type="curve" smooth="yes"/>
      <point x="183" y="715" type="line"/>
      <point x="300" y="539" type="line" smooth="yes"/>
      <point x="303" y="535"/>
      <point x="304" y="531"/>
    </contour>
  </outline>
</glyph>
<glyph name="arrowright" format="1">
  <advance width="630"/>
  <unicode hex="2192"/>
  <outline>
    <contour>
      <point x="610" y="345" type="line"/>
      <point x="434" y="228" type="line" smooth="yes"/>
      <point x="430" y="225"/>
      <point x="426" y="224"/>
      <point x="423" y="226" type="curve" smooth="yes"/>
      <point x="420" y="228"/>
      <point x="418" y="231"/>
      <point x="420" y="235" type="curve" smooth="yes"/>
      <point x="450" y="310" type="line"/>
      <point x="55" y="310" type="line"/>
      <point x="55" y="380" type="line"/>
      <point x="450" y="380" type="line"/>
      <point x="420" y="455" type="line" smooth="yes"/>
      <point x="418" y="459"/>
      <point x="420" y="462"/>
      <point x="423" y="464" type="curve" smooth="yes"/>
      <point x="426" y="466"/>
      <point x="430" y="465"/>
      <point x="434" y="462" type="curve" smooth="yes"/>
    </contour>
  </outline>
</glyph>
<glyph name="arrowupdn" format="1">
  <advance width="366"/>
  <unicode hex="2195"/>
  <outline>
    <contour>
      <point x="302" y="172" type="curve" smooth="yes"/>
      <point x="304" y="169"/>
      <point x="303" y="165"/>
      <point x="300" y="161" type="curve" smooth="yes"/>
      <point x="183" y="-15" type="line"/>
      <point x="66" y="161" type="line" smooth="yes"/>
      <point x="63" y="165"/>
      <point x="62" y="169"/>
      <point x="64" y="172" type="curve" smooth="yes"/>
      <point x="66" y="175"/>
      <point x="69" y="177"/>
      <point x="73" y="175" type="curve" smooth="yes"/>
      <point x="148" y="145" type="line"/>
      <point x="148" y="555" type="line"/>
      <point x="73" y="525" type="line" smooth="yes"/>
      <point x="69" y="523"/>
      <point x="66" y="525"/>
      <point x="64" y="528" type="curve" smooth="yes"/>
      <point x="62" y="531"/>
      <point x="63" y="535"/>
      <point x="66" y="539" type="curve" smooth="yes"/>
      <point x="183" y="715" type="line"/>
      <point x="300" y="539" type="line" smooth="yes"/>
      <point x="303" y="535"/>
      <point x="304" y="531"/>
      <point x="302" y="528" type="curve" smooth="yes"/>
      <point x="300" y="525"/>
      <point x="297" y="523"/>
      <point x="293" y="525" type="curve" smooth="yes"/>
      <point x="218" y="555" type="line"/>
      <point x="218" y="145" type="line"/>
      <point x="293" y="175" type="line" smooth="yes"/>
      <point x="297" y="177"/>
      <point x="300" y="175"/>
    </contour>
  </outline>
</glyph>
<glyph name="radical" format="1">
  <advance width="580"/>
  <unicode hex="221A"/>
  <outline>
    <contour>
      <point x="535" y="700" type="line"/>
      <point x="271" y="0" type="line"/>
      <point x="201" y="0" type="line"/>
      <point x="46" y="340" type="line"/>
      <point x="126" y="340" type="line"/>
      <point x="175" y="228" type="line" smooth="yes"/>
      <point x="192" y="190"/>
      <point x="223" y="112"/>
      <point x="235" y="77" type="curve"/>
      <point x="246" y="112"/>
      <point x="275" y="194"/>
      <point x="289" y="233" type="curve" smooth="yes"/>
      <point x="460" y="700" type="line"/>
    </contour>
  </outline>
</glyph>
<glyph name="fi" format="1">
  <advance width="597"/>
  <unicode hex="FB01"/>
  <outline>
    <contour>
      <point x="525" y="672" type="curve" smooth="yes"/>
      <point x="525" y="643"/>
      <point x="501" y="619"/>
      <point x="473" y="619" type="curve" smooth="yes"/>
      <point x="442" y="619"/>
      <point x="418" y="643"/>
      <point x="418" y="672" type="curve" smooth="yes"/>
      <point x="418" y="702"/>
      <point x="442" y="726"/>
      <point x="473" y="726" type="curve" smooth="yes"/>
      <point x="501" y="726"/>
      <point x="525" y="702"/>
    </contour>
    <contour>
      <point x="309" y="646" type="line"/>
      <point x="292" y="654"/>
      <point x="272" y="658"/>
      <point x="248" y="658" type="curve" smooth="yes"/>
      <point x="217" y="658"/>
      <point x="194" y="647"/>
      <point x="194" y="603" type="curve" smooth="yes"/>
      <point x="194" y="525" type="line"/>
      <point x="297" y="525" type="line"/>
      <point x="297" y="462" type="line"/>
      <point x="194" y="462" type="line"/>
      <point x="194" y="0" type="line"/>
      <point x="119" y="0" type="line"/>
      <point x="119" y="462" type="line"/>
      <point x="47" y="462" type="line"/>
      <point x="47" y="525" type="line"/>
      <point x="119" y="525" type="line"/>
      <point x="119" y="597" type="line" smooth="yes"/>
      <point x="119" y="691"/>
      <point x="170" y="726"/>
      <point x="243" y="726" type="curve" smooth="yes"/>
      <point x="273" y="726"/>
      <point x="291" y="723"/>
      <point x="309" y="717" type="curve"/>
    </contour>
    <contour>
      <point x="509" y="0" type="line"/>
      <point x="434" y="0" type="line"/>
      <point x="434" y="525" type="line"/>
      <point x="509" y="525" type="line"/>
    </contour>
  </outline>
</glyph>
<glyph name="bullet" format="1">
  <advance width="374"/>
  <outline>
    <contour>
      <point x="294" y="366" type="curve" smooth="yes"/>
      <point x="294" y="307"/>
      <point x="246" y="259"/>
      <point x="187" y="259" type="curve" smooth="yes"/>
      <point x="128" y="259"/>
      <point x="80" y="307"/>
      <point x="80" y="366" type="curve" smooth="yes"/>
      <point x="80" y="425"/>
      <point x="128" y="475"/>
      <point x="187" y="475" type="curve" smooth="yes"/>
      <point x="246" y="475"/>
      <point x="294" y="425"/>
    </contour>
  </outline>
</glyph>
<glyph name="macron" format="1">
  <advance width="500"/>
  <outline>
    <contour>
      <point x="386" y="618" type="line"/>
      <point x="114" y="618" type="line"/>
      <point x="114" y="688" type="line"/>
      <point x="386" y="688" type="line"/>
    </contour>
  </outline>
</glyph>
<glyph name="registered" format="1">
  <advance width="836"/>
  <outline>
    <contour>
      <point x="779" y="350" type="curve" smooth="yes"/>
      <point x="779" y="135"/>
      <point x="623" y="-11"/>
      <point x="418" y="-11" type="curve" smooth="yes"/>
      <point x="213" y="-11"/>
      <point x="57" y="135"/>
      <point x="57" y="350" type="curve" smooth="yes"/>
      <point x="57" y="565"/>
      <point x="213" y="711"/>
      <point x="418" y="711" type="curve" smooth="yes"/>
      <point x="623" y="711"/>
      <point x="779" y="565"/>
    </contour>
    <contour>
      <point x="730" y="350" type="curve" smooth="yes"/>
      <point x="730" y="536"/>
      <point x="595" y="665"/>
      <point x="418" y="665" type="curve" smooth="yes"/>
      <point x="241" y="665"/>
      <point x="106" y="536"/>
      <point x="106" y="350" type="curve" smooth="yes"/>
      <point x="106" y="164"/>
      <point x="241" y="35"/>
      <point x="418" y="35" type="curve" smooth="yes"/>
      <point x="595" y="35"/>
      <point x="730" y="164"/>
    </contour>
    <contour>
      <point x="578" y="441" type="curve" smooth="yes"/>
      <point x="578" y="381"/>
      <point x="542" y="341"/>
      <point x="486" y="328" type="curve"/>
      <point x="575" y="157" type="line"/>
      <point x="513" y="157" type="line"/>
      <point x="427" y="324" type="line"/>
      <point x="341" y="324" type="line"/>
      <point x="341" y="157" type="line"/>
      <point x="288" y="157" type="line"/>
      <point x="288" y="556" type="line"/>
      <point x="450" y="556" type="line" smooth="yes"/>
      <point x="522" y="556"/>
      <point x="578" y="520"/>
    </contour>
    <contour>
      <point x="525" y="441" type="curve" smooth="yes"/>
      <point x="525" y="486"/>
      <point x="497" y="509"/>
      <point x="447" y="509" type="curve" smooth="yes"/>
      <point x="341" y="509" type="line"/>
      <point x="341" y="374" type="line"/>
      <point x="441" y="374" type="line" smooth="yes"/>
      <point x="498" y="374"/>
      <point x="525" y="395"/>
    </contour>
  </outline>
</glyph>
